<svg xmlns="http://www.w3.org/2000/svg" xmlns:xlink="http://www.w3.org/1999/xlink" width="515.928" height="382.138" viewBox="0 0 515.928 382.138">
  <defs>
    <linearGradient id="linear-gradient" x1="0.5" y1="1" x2="0.5" gradientUnits="objectBoundingBox">
      <stop offset="0" stop-color="gray" stop-opacity="0.251"/>
      <stop offset="0.54" stop-color="gray" stop-opacity="0.122"/>
      <stop offset="1" stop-color="gray" stop-opacity="0.102"/>
    </linearGradient>
    <linearGradient id="linear-gradient-2" x1="0.5" y1="1" x2="0.5" y2="0" xlink:href="#linear-gradient"/>
    <linearGradient id="linear-gradient-3" x1="-0.211" y1="3.614" x2="-0.211" y2="0.343" xlink:href="#linear-gradient"/>
    <linearGradient id="linear-gradient-4" x1="-0.036" y1="4.542" x2="-0.036" y2="1.284" xlink:href="#linear-gradient"/>
    <linearGradient id="linear-gradient-5" x1="-0.017" y1="4.446" x2="-0.017" y2="1.187" xlink:href="#linear-gradient"/>
    <linearGradient id="linear-gradient-6" x1="-1.04" y1="1.715" x2="-1.04" y2="0.715" xlink:href="#linear-gradient"/>
    <linearGradient id="linear-gradient-7" x1="0.551" y1="0.784" x2="0.551" y2="0.225" xlink:href="#linear-gradient"/>
    <linearGradient id="linear-gradient-8" x1="0.5" y1="1" x2="0.5" y2="0" xlink:href="#linear-gradient"/>
  </defs>
  <g id="backup" transform="translate(0 -0.002)">
    <path id="Caminho_64" data-name="Caminho 64" d="M303.014,72.443C286.087,65.562,268.2,59.8,249.937,60.535c-26.868,1.057-52.6,17.2-65.244,40.917-10.711,20.087-12.031,43.636-16.645,65.927-5.683,27.469-16.567,53.572-28.2,79.1-6.248,13.694-12.838,27.72-13.862,42.752-1.425,20.866,8.552,41.664,24.2,55.558s36.431,21.2,57.275,22.8c11.1.852,22.692.064,32.552-5.1,10.428-5.465,18.029-15.342,28.5-20.725,9.7-5.009,21.053-5.692,31.946-5.041a143.056,143.056,0,0,1,41.71,8.862c15.224,5.72,29.382,14,44.574,19.8s32.164,9.035,47.693,4.194C449,365.024,460.543,354,470.94,342.824a468.212,468.212,0,0,0,46.541-58.882c9.377-14.044,18.1-28.863,22.251-45.234,7.924-31.295-2.983-66.606-27.182-87.982-20.037-17.706-46.947-25.393-73.282-30.056-24.013-4.253-51.778-4.518-73.883-15.6C344.3,94.48,325.118,81.433,303.014,72.443Z" transform="translate(-83.814 -46.79)" fill="#2bedbf" opacity="0.1"/>
    <path id="Caminho_65" data-name="Caminho 65" d="M808.945,140.691c-6.5.26-6.831,17.05-6.426,17.783s-1.475,8.311-1.475,8.311-2.951,11.49-2.609,13.625a3.979,3.979,0,0,1-1.589,3.534c-2.887,1.138-6.508,4.809-7.468,5.815l-.241.26a21.005,21.005,0,0,0-3.288,2.541c-.492.72-1.822.146-1.822.146a35.506,35.506,0,0,0-4.272-.219c-.337.1-.865-.519-1.166-.911-.141-.187-.232-.328-.232-.328l-.114-3.388a2.772,2.772,0,0,0-.455-.282c.077-.383.173-.779.291-1.184a10.146,10.146,0,0,0,4.14-3.716c.109-.173.209-.351.305-.528a1.367,1.367,0,0,0,.861.241,1.707,1.707,0,0,0,.4-.036,3.238,3.238,0,0,0,1.166-.587,6.239,6.239,0,0,0,2.168-2.541,4.114,4.114,0,0,0,.2-.606c-.068.114-.141.228-.214.337a3.5,3.5,0,0,0-.241-2.956,9.705,9.705,0,0,1-1.138-1.676c-.383-1.1.342-2.231.788-3.306a5.56,5.56,0,0,0,.405-3.115,3.98,3.98,0,0,0-1.685-2.628c-1.79-1.161-4.217-.524-6.289-1.084a17.028,17.028,0,0,1-2.163-.87,16.394,16.394,0,0,0-3.311-1.029c-1.125-.223-2.486-.246-3.188.633a6.545,6.545,0,0,0-.519.879,3.256,3.256,0,0,1-2.036,1.462,7.631,7.631,0,0,1-1.252.132,1.211,1.211,0,0,0,0-.519c-.528-1.73.984-3.015,2.951-3.789s9.449-6.667,10.319-8.065,6.958-5.783,6.958-5.783,9.108-2.578,12.1-11.968-14.29,6.558-16.03,7.036a17.724,17.724,0,0,0-4.231,2.277L767.463,151a40.127,40.127,0,0,0-5.975,4.126,20.062,20.062,0,0,0-4.381,6.257s-1.061,1.73-2.609,4.235a11.531,11.531,0,0,1-3.379,3.593l.05-.091c-.123.15-3.935,4.964-4.272,7.068s-1.89,10.679-1.89,10.679-1.366,6.735-2.3,8.06c0,0-.76,3.866-1.211,4.385s-2.277,6-1.967,6.553c0,0-1.74,3.793-1.435,5.228l-3.138,7.514s-1.7,3.716-1.589,5.888c.055,1.052.1,2.277.132,3.279v.455h0v.455c-.169.282-.6,1-1.052,1.872a9.747,9.747,0,0,0-1.293,3.821c.073,1.712.077,5.893-.71,7.427l-.232-.091a3.187,3.187,0,0,0-.455,1.512l.055.027c0,.132-.041.269-.055.414-.191,1.744.086,4.171-.351,4.7-.606.738-.305,17.086-.305,17.086s-.984,10.233.984,16.717l-.15,5.078a47.3,47.3,0,0,0,.15,5.465,53.278,53.278,0,0,1,.305,5.524l1.134,8.1s-1.516,12.519-.228,15.611a17.012,17.012,0,0,1,1.366,5.378,8.364,8.364,0,0,0,2.086.806v.455l-.3,7.614v.419s-.036.2-.064.533h0v.187a.227.227,0,0,0,0,.055v.159a1.148,1.148,0,0,0,0,.123.882.882,0,0,1,0,.109v.688h0v.665a1.31,1.31,0,0,0,.036.228.227.227,0,0,0,0,.055,1.164,1.164,0,0,0,.05.25h0a.967.967,0,0,0,.059.246.061.061,0,0,1,0,.027h0a.448.448,0,0,0,.036.128.224.224,0,0,0,0,.059.735.735,0,0,0,.046.155v.036c.046.128.091.255.146.383a.165.165,0,0,0,0,.041c0,.046.041.1.064.141l.027.064.059.123.036.068.064.114.041.068c0,.036.041.073.064.109a.841.841,0,0,1,.046.073l.068.1.05.068.073.1.055.068.082.1.055.064.1.109.05.055.155.15a.238.238,0,0,0,.05.046,1.257,1.257,0,0,0,.114.1l.073.059.1.082.086.064.1.073.1.064.1.064.1.059.1.064.109.055.114.055.114.055.114.05.123.05.123.046.128.046.137.041.214.064.178.046.141.027.146.032h.155l.15.023h1.922l.246-.023h.15l.414-.046s5.16.77,5.328-1.271a1.634,1.634,0,0,1,.023-.328v-.26a.667.667,0,0,1,0-.1c0-.1,0-.21,0-.319v-2.272c-.032-1.011-.082-1.949-.114-2.473a3.306,3.306,0,0,0-.027-.455s-1.758-2.65-1.471-3.643a26.213,26.213,0,0,0,.223-4.363s-.683-1.617-1.143-3.047c-.036-.109-.068-.219-.1-.323a16.828,16.828,0,0,0,1.075-1.366,17.305,17.305,0,0,0-1.284-10.383.647.647,0,0,1-.278-.533.221.221,0,0,1,0-.055l.879-10.752-.533-6.257s-.378-4.276.455-6.116l1.662-16.2L748.5,263.6s.756-.369,1.366,1.4,2.113,9.791,2.113,9.791l3.643,13.257s.606,4.713,1.134,5.378.533,3.607.533,3.607,1.134,2.359.984,3.388a14.655,14.655,0,0,0,.373,4.786c.373.956.533,7.742.533,7.742a15.638,15.638,0,0,0,.15,6.7,23.6,23.6,0,0,1,.378,7.66,5.234,5.234,0,0,0,.31.428c-.036.1-.077.2-.114.291-.237.615-.423,1.047-.423,1.047a26.853,26.853,0,0,0,.228,4.363c.282.993-1.475,3.643-1.475,3.643s0,.164-.027.455c-.032.524-.082,1.457-.114,2.473v2.6a.569.569,0,0,0,0,.087v.264a1.683,1.683,0,0,0,.023.328c.173,2.04,5.333,1.271,5.333,1.271l.414.05h2.3l.155-.027.15-.023.146-.032.146-.027.178-.046.214-.064.132-.041.128-.046a.972.972,0,0,0,.123-.046l.123-.05.118-.05.114-.05.114-.059.1-.055.109-.059.1-.064.1-.064.091-.064.1-.073a.608.608,0,0,0,.086-.064.828.828,0,0,0,.1-.077l.077-.064.114-.1.05-.05.155-.15.046-.055.1-.1.05-.068a.907.907,0,0,0,.087-.1l.05-.068.077-.1.046-.068.073-.1a.652.652,0,0,1,.046-.073c0-.036.041-.073.064-.109l.041-.068c0-.041.041-.077.059-.114a.5.5,0,0,0,.036-.068c0-.041.041-.082.059-.123l.032-.064c0-.046.041-.091.064-.141v-.041c.05-.128.1-.255.141-.383v-.036a.488.488,0,0,1,.05-.15.348.348,0,0,1,0-.064.173.173,0,0,1,.036-.128v-.023a.061.061,0,0,0,0-.027,1.112,1.112,0,0,1,.064-.241h0a1.577,1.577,0,0,1,.05-.246v-.059a1.745,1.745,0,0,1,.036-.223.178.178,0,0,0,0-.077v-.592h0v-.8a1.117,1.117,0,0,1,0-.123v-.159a.221.221,0,0,1,0-.055v-.182h0c-.027-.332-.059-.533-.059-.533v-.414l-.287-7.368v-.455c.423-.237.856-.505,1.307-.82,0,0-.077-4.2,1.134-5.888s-.606-6.116-.606-6.116l-.756-15.834.3-7.286a7.246,7.246,0,0,1-.911-3.534,12.856,12.856,0,0,0-1.211-4.554s-.756-2.5.155-3.242-.984-16.85-.984-16.85.455-11.772-.41-18.762v-.114l.241-.109c-.073-.56-.15-1.084-.237-1.571l-.255.077a12.81,12.81,0,0,0-.455-1.822l-1.211-5.56s-.027-.291-.059-.715c-.041-.5-.087-1.179-.1-1.776a3.019,3.019,0,0,1,.082-.747l-.064-.055a1.655,1.655,0,0,1,.064-.387l-.264-.223s-.036-.25-.064-.633a7.124,7.124,0,0,1,.328-3.156c.606-1.216,6.831-5.82,6.831-5.82l3.488-6.981s3.479-4.9,6.125-5.856,10.888-6.439,10.888-6.439,2.874-2.946,3.1-3.643l.1-.146h.055v-.1l7.742-11.6c3.1-2.5,3.211-7.842,3.211-7.842l.806-12.2-.264-7.213.373-4.1S815.443,140.436,808.945,140.691ZM764.6,172.249a9.758,9.758,0,0,0-1.284,4.836v.442a9.727,9.727,0,0,0,1.033,4.362,3.575,3.575,0,0,0-.751,1.335,7.242,7.242,0,0,1-1.567-2.937,3.057,3.057,0,0,0-1.211-1.986,8.34,8.34,0,0,1,.073-2.614l.041-.036s.032-.055.1-.146h0c.323-.487,1.412-2.131,2.537-4a3.582,3.582,0,0,0,.578.191l.692.173Z" transform="translate(-412.21 -85.919)" fill="url(#linear-gradient)"/>
    <path id="Caminho_66" data-name="Caminho 66" d="M855.458,216.723c.068-.155.123-.319.178-.483a10.067,10.067,0,0,0-.455,1.116C855.276,217.142,855.371,216.932,855.458,216.723Z" transform="translate(-481.011 -131.622)" fill="url(#linear-gradient-2)"/>
    <path id="Caminho_67" data-name="Caminho 67" d="M806.128,239.43s-1.425,6.794-4.053,7.673,3.188,8.652,3.188,8.652l12.054-.66.219-2.518s-2.277-5.041,1.535-11.175S806.128,239.43,806.128,239.43Z" transform="translate(-451.718 -143.5)" fill="#f6bac2"/>
    <path id="Caminho_68" data-name="Caminho 68" d="M755.764,570.4c-.164,2.026-5.151,1.261-5.151,1.261-8.27,1.148-6.9-6.958-6.9-6.958v-.414l.287-7.56.082-2.108s9.108-4.162,8.876-3.288a5.18,5.18,0,0,0,.369,1.967c.455,1.416,1.107,3.019,1.107,3.019a27.23,27.23,0,0,1-.219,4.326c-.273.984,1.425,3.616,1.425,3.616s0,.164.027.455a53.131,53.131,0,0,1,.1,5.683Z" transform="translate(-420.257 -314.052)" fill="#b77983"/>
    <path id="Caminho_69" data-name="Caminho 69" d="M799.081,573.687s-4.987.77-5.151-1.261a51.812,51.812,0,0,1,.087-5.7,4.059,4.059,0,0,1,.023-.455s1.7-2.632,1.425-3.616a27.283,27.283,0,0,1-.219-4.331s.178-.423.41-1.034c.487-1.28,1.22-3.356,1.07-3.948-.219-.879,8.876,3.283,8.876,3.283l.091,2.359.278,7.309v.414S807.356,574.839,799.081,573.687Z" transform="translate(-447.631 -315.145)" fill="#b77983"/>
    <path id="Caminho_70" data-name="Caminho 70" d="M822.485,138.837A18.67,18.67,0,0,1,810.8,150.709s-5.884,4.363-6.722,5.729-8.07,7.232-9.973,8-3.356,2.045-2.846,3.757c.455,1.589-4.527,9.367-5.278,10.524h0l-.091.146-1.571,1.644-5.333,2.7-4.344-1.389-.551-5.219,2.3-4.1h0a11.307,11.307,0,0,0,3.265-3.566c1.5-2.486,2.523-4.2,2.523-4.2a20.034,20.034,0,0,1,4.235-6.212,38.321,38.321,0,0,1,5.77-4.1l10.706-6.376a17.262,17.262,0,0,1,4.1-2.277C808.682,145.29,825.372,129.525,822.485,138.837Z" transform="translate(-436.848 -87.868)" fill="#f6bac2"/>
    <path id="Caminho_71" data-name="Caminho 71" d="M778.985,223.635l7.122-1.425a.455.455,0,0,0-.128.3h0l-.091.146-1.571,1.644-5.333,2.7-4.344-1.389-.551-5.219,2.3-4.1h0c-2.181,4.554-.055,7.787-.055,7.787Z" transform="translate(-436.848 -131.649)" opacity="0.05"/>
    <path id="Caminho_72" data-name="Caminho 72" d="M864.52,271.543a1.328,1.328,0,0,0-.05.146,2,2,0,0,1-.264.455l-2.874,1.4-4.385.455-2.277-5.515,1.516-6.043.838-1.129.232-.255c.087,1.093.528,6.794.5,8.507-.036,1.9,1.366,2.049,1.366,2.049Z" transform="translate(-480.733 -156.031)" opacity="0.05"/>
    <path id="Caminho_73" data-name="Caminho 73" d="M802.678,247.439a1.319,1.319,0,0,0-.05.146,26.65,26.65,0,0,1-2.992,3.616s-7.965,5.442-10.52,6.376-5.92,5.806-5.92,5.806l-3.361,6.936s-6.025,4.554-6.608,5.774a7.2,7.2,0,0,0-.314,3.133,3.249,3.249,0,0,0,.055.628l-1.776,1.853-1.416,1.475-1.995,2.077-3.247-.455L754.416,283.2l-1.94-1.093-10.77-6.066s0-.378-.027-.956c0-.255,0-.546-.027-.87-.032-.984-.077-2.209-.128-3.252-.109-2.154,1.535-5.843,1.535-5.843l3.028-7.455c-.292-1.421,1.389-5.187,1.389-5.187-.292-.546,1.462-5.988,1.9-6.5s1.17-4.349,1.17-4.349c.911-1.312,2.227-8,2.227-8s1.5-8.475,1.822-10.592,4.007-6.863,4.126-7.008c-2.628,4.818-.328,8.325-.328,8.325l2.632-.455,7.127-1.389c-.328.219-.109,2.628-.109,2.628a3.037,3.037,0,0,1,1.166,1.972,7.564,7.564,0,0,0,1.608,3.028l.036.041a3.565,3.565,0,0,1,1.717-2.45l1.644,2.2.551,2.628s-.15.369-1.1,1.1.4,2.628.4,2.628a13.382,13.382,0,0,1,.587,3.616h0a5.326,5.326,0,0,1,3.1-1.057,9.391,9.391,0,0,0,1.863-2.669,1.1,1.1,0,0,1,1.571-.729,10.1,10.1,0,0,1,1.79-1.243c.879-.455,1.9.455,1.9.455l.109,3.365s.086.137.228.323c.287.4.8,1.016,1.125.911a33.359,33.359,0,0,1,4.126.219s1.28.546,1.753-.146a21.607,21.607,0,0,1,3.188-2.518s.524,6.781.524,8.675,1.366,2.049,1.366,2.049Z" transform="translate(-419.11 -131.508)" fill="#d39999"/>
    <path id="Caminho_74" data-name="Caminho 74" d="M875.886,284.758h-.1C875.963,284.3,875.886,284.758,875.886,284.758Z" transform="translate(-492.235 -168.827)" fill="none"/>
    <circle id="Elipse_18" data-name="Elipse 18" cx="0.656" cy="0.656" r="0.656" transform="translate(353.026 110.835)" fill="#4b4442"/>
    <circle id="Elipse_19" data-name="Elipse 19" cx="0.656" cy="0.656" r="0.656" transform="translate(348.239 120.371)" fill="#4b4442"/>
    <circle id="Elipse_20" data-name="Elipse 20" cx="0.656" cy="0.656" r="0.656" transform="translate(338.817 140.786)" fill="#4b4442"/>
    <circle id="Elipse_21" data-name="Elipse 21" cx="0.656" cy="0.656" r="0.656" transform="translate(343.271 130.485)" fill="#4b4442"/>
    <path id="Caminho_75" data-name="Caminho 75" d="M753.846,553.3c-3.425,4.071-7.122,4-9.326,3.429l.082-2.108s9.108-4.162,8.876-3.288A4.836,4.836,0,0,0,753.846,553.3Z" transform="translate(-420.744 -314.052)" opacity="0.05"/>
    <path id="Caminho_76" data-name="Caminho 76" d="M807.829,559.027c-5.815,3.361-9.226-.578-10.019-1.694.487-1.28,1.22-3.356,1.07-3.948-.219-.879,8.876,3.283,8.876,3.283Z" transform="translate(-449.766 -315.167)" opacity="0.05"/>
    <path id="Caminho_77" data-name="Caminho 77" d="M774.319,438.781c-1.166,1.68-1.1,5.843-1.1,5.843-7.523,5.406-11.467-1.17-11.467-1.17a24.187,24.187,0,0,0-.364-7.6,15.855,15.855,0,0,1-.146-6.649s-.146-6.722-.515-7.669a14.671,14.671,0,0,1-.364-4.75c.146-1.025-.947-3.356-.947-3.356s0-2.924-.515-3.579-1.093-5.337-1.093-5.337l-3.5-13.147s-1.462-7.96-2.045-9.714-1.316-1.389-1.316-1.389l-2.1,9.422-1.608,16.071c-.806,1.822-.455,6.066-.455,6.066l.51,6.207-.847,10.665a.227.227,0,0,0,0,.055.651.651,0,0,0,.264.528,17.55,17.55,0,0,1,1.225,10.3c-5.551,8.038-12.273,3.871-12.273,3.871a17.047,17.047,0,0,0-1.312-5.328c-1.243-3.069.219-15.483.219-15.483l-1.1-8.038a53.821,53.821,0,0,0-.292-5.465,48.094,48.094,0,0,1-.146-5.406l.146-5.041c-1.9-6.43-.952-16.581-.952-16.581s-.291-16.217.3-16.95c.424-.528.155-2.933.337-4.668a3.256,3.256,0,0,1,.428-1.5l.073-.073c.952-1.17.952-5.843.874-7.673a9.855,9.855,0,0,1,1.252-3.789c.455-.883.87-1.612,1.025-1.876l.064-.1s4.162,1.025,15.192,6.284a20.729,20.729,0,0,0,6.275,1.945,13.964,13.964,0,0,0,3.274.05,11.431,11.431,0,0,0,4.709-1.53,8.279,8.279,0,0,0,2.036-1.635,13.611,13.611,0,0,0,0,2.942c.027.424.059.71.059.71l1.216,5.419a14.21,14.21,0,0,1,.455,1.963c.087.483.159,1.006.228,1.562.852,6.931.4,18.612.4,18.612s1.822,16,.952,16.727-.15,3.215-.15,3.215a12.966,12.966,0,0,1,1.17,4.527,7.287,7.287,0,0,0,.879,3.507l-.3,7.232.765,15.688S775.49,437.1,774.319,438.781Z" transform="translate(-413.921 -202.007)" fill="#8499f0"/>
    <path id="Caminho_78" data-name="Caminho 78" d="M806.13,489.75s5.533-3.188,6.74-1.753S806.13,489.75,806.13,489.75Z" transform="translate(-454.298 -279.42)" opacity="0.05"/>
    <path id="Caminho_79" data-name="Caminho 79" d="M813.224,496.14s-.911.455,1.1,1.038S813.224,496.14,813.224,496.14Z" transform="translate(-458.049 -284.058)" opacity="0.05"/>
    <path id="Caminho_80" data-name="Caminho 80" d="M739.994,476.806c-.187.055,4.6,3.233,8.93.6C748.906,477.407,741.073,476.478,739.994,476.806Z" transform="translate(-418.276 -273.49)" opacity="0.05"/>
    <path id="Caminho_81" data-name="Caminho 81" d="M753.547,490.24a5.872,5.872,0,0,1-4,2.96C746.862,493.583,753.547,490.24,753.547,490.24Z" transform="translate(-423.136 -280.844)" opacity="0.05"/>
    <path id="Caminho_82" data-name="Caminho 82" d="M797.71,502.52s6.3,10.019,5.1,12.382S797.71,502.52,797.71,502.52Z" transform="translate(-449.712 -287.532)" opacity="0.05"/>
    <path id="Caminho_83" data-name="Caminho 83" d="M773.586,369.09,772.93,388.7s3.889-.164,4.554-6.626,1.152-11.726,1.152-11.726Z" transform="translate(-436.217 -214.865)" opacity="0.05"/>
    <path id="Caminho_84" data-name="Caminho 84" d="M773.106,368.13l-.656,19.614s3.889-.164,4.554-6.63,1.161-11.722,1.161-11.722Z" transform="translate(-435.955 -214.342)" fill="#8499f0"/>
    <path id="Caminho_85" data-name="Caminho 85" d="M744.5,369.336s-3.069,8.229-10.091,4.244a3.237,3.237,0,0,1,.428-1.5c1.922.806,6.375,1.985,8.2-3.352Z" transform="translate(-415.238 -214.669)" opacity="0.05"/>
    <path id="Caminho_86" data-name="Caminho 86" d="M744.022,367.411s-3.069,8.229-10.092,4.244a3.256,3.256,0,0,1,.428-1.5c1.922.811,6.375,1.986,8.2-3.347Z" transform="translate(-414.977 -213.624)" opacity="0.05"/>
    <path id="Caminho_87" data-name="Caminho 87" d="M744.022,368.371s-3.069,8.229-10.092,4.244a3.256,3.256,0,0,1,.428-1.5c1.922.811,6.375,1.986,8.2-3.347Z" transform="translate(-414.977 -214.146)" fill="#8499f0"/>
    <path id="Caminho_88" data-name="Caminho 88" d="M802.482,379.372c-7.714,3.67-10.542-4.982-10.542-4.982l1.822.055c.319,5.533,6.417,4.044,8.507,3.365C802.341,378.311,802.414,378.816,802.482,379.372Z" transform="translate(-446.57 -217.752)" opacity="0.05"/>
    <path id="Caminho_89" data-name="Caminho 89" d="M803.442,377.927c-7.71,3.666-10.542-4.987-10.542-4.987l1.822.055c.319,5.533,6.417,4.048,8.507,3.37C803.3,376.847,803.374,377.371,803.442,377.927Z" transform="translate(-447.092 -216.962)" opacity="0.05"/>
    <path id="Caminho_90" data-name="Caminho 90" d="M802.962,378.407c-7.71,3.666-10.542-4.987-10.542-4.987l1.822.055c.319,5.538,6.417,4.048,8.507,3.37C802.821,377.327,802.894,377.851,802.962,378.407Z" transform="translate(-446.831 -217.223)" fill="#8499f0"/>
    <path id="Caminho_91" data-name="Caminho 91" d="M744.022,368.371s-3.069,8.229-10.092,4.244a3.256,3.256,0,0,1,.428-1.5c1.922.811,6.375,1.986,8.2-3.347Z" transform="translate(-414.977 -214.146)" fill="#fff" opacity="0.1"/>
    <path id="Caminho_92" data-name="Caminho 92" d="M802.962,378.407c-7.71,3.666-10.542-4.987-10.542-4.987l1.822.055c.319,5.538,6.417,4.048,8.507,3.37C802.821,377.327,802.894,377.851,802.962,378.407Z" transform="translate(-446.831 -217.223)" fill="#fff" opacity="0.1"/>
    <path id="Caminho_93" data-name="Caminho 93" d="M755.821,584.339a12.916,12.916,0,0,1-.055,1.516c-.164,2.026-5.151,1.261-5.151,1.261-4.554.633-6.193-1.553-6.735-3.643a8.341,8.341,0,0,1-.25-2.077,8.62,8.62,0,0,1,.082-1.248v-.414a3.047,3.047,0,0,1,2.833.578c2.026,1.644,4.713.383,4.713.383a6.324,6.324,0,0,1,2.732.82c.428.369,1.134-.519,1.671-1.366.032.546.082,1.535.114,2.591C755.812,583.282,755.821,583.829,755.821,584.339Z" transform="translate(-420.259 -329.513)" opacity="0.05"/>
    <path id="Caminho_94" data-name="Caminho 94" d="M747.824,586.385s-1.366,1.339-3.944-.729a8.336,8.336,0,0,1-.25-2.077C744.946,584.582,747.387,586.385,747.824,586.385Z" transform="translate(-420.26 -331.678)" opacity="0.05"/>
    <path id="Caminho_95" data-name="Caminho 95" d="M768.63,588.083a1.029,1.029,0,0,1-1.48-.237,9.736,9.736,0,0,0,1.457-1.366C768.621,587.026,768.63,587.573,768.63,588.083Z" transform="translate(-433.069 -333.257)" opacity="0.05"/>
    <path id="Caminho_96" data-name="Caminho 96" d="M793.869,586.4a14,14,0,0,0,.05,1.516c.164,2.031,5.151,1.261,5.151,1.261,4.554.638,6.193-1.548,6.735-3.643a8.748,8.748,0,0,0,.168-3.324V581.8a3.083,3.083,0,0,0-2.837.578c-2.027,1.644-4.709.383-4.709.383a6.351,6.351,0,0,0-2.732.824c-.428.369-1.134-.519-1.667-1.366-.032.547-.087,1.535-.118,2.591C793.873,585.341,793.864,585.888,793.869,586.4Z" transform="translate(-447.619 -330.639)" opacity="0.05"/>
    <path id="Caminho_97" data-name="Caminho 97" d="M811.43,588.431s1.366,1.339,3.939-.729a8.31,8.31,0,0,0,.255-2.072C814.3,586.627,811.863,588.431,811.43,588.431Z" transform="translate(-457.184 -332.794)" opacity="0.05"/>
    <path id="Caminho_98" data-name="Caminho 98" d="M793.869,590.143a1.025,1.025,0,0,0,1.475-.237,9.636,9.636,0,0,1-1.457-1.366C793.873,589.082,793.864,589.628,793.869,590.143Z" transform="translate(-447.619 -334.379)" opacity="0.05"/>
    <path id="Caminho_99" data-name="Caminho 99" d="M774.773,285s-7.013,19.359-4.313,21.039S774.773,285,774.773,285Z" transform="translate(-434.534 -169.069)" opacity="0.05"/>
    <path id="Caminho_100" data-name="Caminho 100" d="M790.889,271.88s-1.321,6.43-.66,7.013S790.889,271.88,790.889,271.88Z" transform="translate(-445.537 -161.924)" opacity="0.05"/>
    <path id="Caminho_101" data-name="Caminho 101" d="M813.354,304.77s-8.621,8.033-8.038,8.693S813.354,304.77,813.354,304.77Z" transform="translate(-453.839 -179.836)" opacity="0.05"/>
    <path id="Caminho_102" data-name="Caminho 102" d="M824.334,260.853c-3.265,1-10.9,3.329-10.984,3.311l.423-1.74a5.326,5.326,0,0,1,3.1-1.057,9.391,9.391,0,0,0,1.863-2.669,1.1,1.1,0,0,1,1.571-.729,10.37,10.37,0,0,1,1.79-1.243c.879-.455,1.9.455,1.9.455l.109,3.361S824.193,260.667,824.334,260.853Z" transform="translate(-458.23 -153.602)" opacity="0.05"/>
    <path id="Caminho_103" data-name="Caminho 103" d="M824.334,259.913c-3.265,1-10.9,3.329-10.984,3.306l.423-1.735a5.326,5.326,0,0,1,3.1-1.057,9.391,9.391,0,0,0,1.863-2.669,1.1,1.1,0,0,1,1.571-.729,10.1,10.1,0,0,1,1.79-1.243c.879-.455,1.9.455,1.9.455l.109,3.365S824.193,259.718,824.334,259.913Z" transform="translate(-458.23 -153.091)" fill="#d39999"/>
    <path id="Caminho_104" data-name="Caminho 104" d="M808.616,250.767a13.335,13.335,0,0,1,.583,3.616l-1.271,1.011-2.414-6.958-.109-3.616-.046-.2.036.041a3.548,3.548,0,0,1,1.717-2.445l1.644,2.19.551,2.628s-.15.369-1.1,1.1S808.616,250.767,808.616,250.767Z" transform="translate(-453.878 -145.766)" opacity="0.05"/>
    <path id="Caminho_105" data-name="Caminho 105" d="M809.106,250.268a13.385,13.385,0,0,1,.587,3.616l-1.271,1.025-2.414-6.958-.109-3.616-.05-.2.036.041a3.565,3.565,0,0,1,1.717-2.45l1.644,2.2.551,2.628s-.15.369-1.1,1.1S809.106,250.268,809.106,250.268Z" transform="translate(-454.145 -145.499)" fill="#d39999"/>
    <path id="Caminho_106" data-name="Caminho 106" d="M824.779,222.553a9.777,9.777,0,1,1-2.862-7A9.859,9.859,0,0,1,824.779,222.553Z" transform="translate(-453.715 -129.688)" opacity="0.05"/>
    <path id="Caminho_107" data-name="Caminho 107" d="M824.768,221.589A9.8,9.8,0,1,1,821.9,214.6a9.864,9.864,0,0,1,2.872,6.988Z" transform="translate(-453.704 -129.166)" fill="#f6bac2"/>
    <path id="Caminho_108" data-name="Caminho 108" d="M826.26,221.574a9.806,9.806,0,0,1-1.435,5.123c-.146-.26-.232-.56-.378-.824-.2-.369-.679-.679-1.029-.455a1.052,1.052,0,0,0-.323.455c-.287.606-.8,1.211-1.466,1.2a1.453,1.453,0,0,1-1.248-1.066,4.374,4.374,0,0,1-.073-1.74c.1-1.184.118-2.55-.76-3.347a4.982,4.982,0,0,0-1.9-.852A2.5,2.5,0,0,1,816,218.856c-.182-.455-.137-.938-.3-1.366a2.391,2.391,0,0,0-1.771-1.3,4.645,4.645,0,0,1-3.1,1.061,11.622,11.622,0,0,1-3.051-.483,9.864,9.864,0,0,1,18.48,4.8Z" transform="translate(-455.196 -129.151)" opacity="0.05"/>
    <path id="Caminho_109" data-name="Caminho 109" d="M813.795,211.209c.164.455.118.947.3,1.366a2.486,2.486,0,0,0,1.639,1.211,5.01,5.01,0,0,1,1.9.847c.879.8.861,2.168.76,3.352a4.375,4.375,0,0,0,.073,1.74,1.462,1.462,0,0,0,1.248,1.066,1.812,1.812,0,0,0,1.466-1.2,1.061,1.061,0,0,1,.323-.455c.351-.232.824.077,1.029.455a4.513,4.513,0,0,0,.587,1.107,1.311,1.311,0,0,0,1.2.273,3.02,3.02,0,0,0,1.125-.583,6.166,6.166,0,0,0,2.095-2.518,3.616,3.616,0,0,0-.132-3.188,9.572,9.572,0,0,1-1.1-1.667c-.373-1.088.328-2.209.76-3.274a5.684,5.684,0,0,0,.387-3.092,3.971,3.971,0,0,0-1.626-2.609c-1.73-1.152-4.071-.519-6.075-1.075a15.4,15.4,0,0,1-2.09-.861,15.485,15.485,0,0,0-3.188-1.02c-1.088-.219-2.4-.246-3.092.624a6.894,6.894,0,0,0-.5.874,3.147,3.147,0,0,1-1.967,1.448c-.587.141-1.2.1-1.822.191a2,2,0,0,0-1.516.87,3.017,3.017,0,0,0-.1,1.822,1.849,1.849,0,0,1-.455,1.717c-.232.178-.551.264-.692.515a.724.724,0,0,0,.214.861,2.053,2.053,0,0,0,.87.383,13.311,13.311,0,0,0,3.493.6,4.609,4.609,0,0,0,3.252-1.2c-.077.077-.578.046-.669.041A2.66,2.66,0,0,1,813.795,211.209Z" transform="translate(-453.287 -123.299)" fill="#7e646b"/>
    <g id="Grupo_108" data-name="Grupo 108" transform="translate(351.12 81.457)" opacity="0.05">
      <path id="Caminho_110" data-name="Caminho 110" d="M826.167,228.571a3.1,3.1,0,0,1-1.125.587,1.321,1.321,0,0,1-1.193-.278,4.443,4.443,0,0,1-.592-1.107c-.2-.369-.679-.679-1.029-.455a1.116,1.116,0,0,0-.323.455,1.783,1.783,0,0,1-1.466,1.2,1.444,1.444,0,0,1-1.243-1.066,4.377,4.377,0,0,1-.077-1.74c.1-1.184.118-2.546-.756-3.347a5.009,5.009,0,0,0-1.908-.852,2.507,2.507,0,0,1-1.639-1.211c-.182-.455-.137-.938-.3-1.366a2.381,2.381,0,0,0-1.771-1.3,4.727,4.727,0,0,1-3.1,1.066,13.508,13.508,0,0,1-3.493-.6,2.108,2.108,0,0,1-.87-.378.962.962,0,0,1-.141-.164,1.275,1.275,0,0,0-.51.4.724.724,0,0,0,.214.861,2.053,2.053,0,0,0,.87.383,13.31,13.31,0,0,0,3.493.6,4.686,4.686,0,0,0,3.1-1.061,2.383,2.383,0,0,1,1.776,1.3c.164.455.118.947.3,1.366a2.5,2.5,0,0,0,1.639,1.211,5.009,5.009,0,0,1,1.9.847c.879.8.861,2.168.76,3.352a4.378,4.378,0,0,0,.073,1.74A1.462,1.462,0,0,0,820,230.064a1.812,1.812,0,0,0,1.466-1.2,1.062,1.062,0,0,1,.323-.455c.351-.232.824.077,1.029.455a4.377,4.377,0,0,0,.592,1.107,1.3,1.3,0,0,0,1.193.273,3.02,3.02,0,0,0,1.125-.583,6.166,6.166,0,0,0,2.095-2.518,4.021,4.021,0,0,0,.2-.6A6.493,6.493,0,0,1,826.167,228.571Z" transform="translate(-804.565 -214.044)"/>
      <path id="Caminho_111" data-name="Caminho 111" d="M854,220.257c.1-.21.187-.419.273-.624a4.151,4.151,0,0,0,.169-.483,10.771,10.771,0,0,0-.442,1.107Z" transform="translate(-831.488 -214.664)"/>
      <path id="Caminho_112" data-name="Caminho 112" d="M807.1,212.028a1.868,1.868,0,0,0,.414-1.676,7.459,7.459,0,0,1-.087-1.052,1.55,1.55,0,0,0-.25.319,3.017,3.017,0,0,0-.1,1.822A3.545,3.545,0,0,1,807.1,212.028Z" transform="translate(-805.887 -209.3)"/>
    </g>
    <path id="Caminho_113" data-name="Caminho 113" d="M772.186,353.616c-.847.059-2.036.123-3.466.173-.993.032-2.1.055-3.292.055-1.038,0-2.136,0-3.274-.05a70.206,70.206,0,0,1-10.734-1.107c-4.732-.911-9.108-2.482-11.84-5.141.455-.883.87-1.617,1.025-1.876,0-.255,0-.551-.027-.87,4.8,2.277,19.782,8.6,31.263,5.009a3.246,3.246,0,0,0,.055.628l.26.219A13.819,13.819,0,0,0,772.186,353.616Z" transform="translate(-418.054 -201.637)" opacity="0.05"/>
    <path id="Caminho_114" data-name="Caminho 114" d="M772.186,352.651c-.847.059-2.036.123-3.466.168-.993.036-2.1.055-3.292.055-1.038,0-2.136,0-3.274-.05a70.19,70.19,0,0,1-10.734-1.1c-4.732-.911-9.108-2.486-11.84-5.146.455-.883.87-1.612,1.025-1.876,0-.255,0-.547-.027-.87,4.8,2.277,19.782,8.607,31.263,5.032a3.246,3.246,0,0,0,.055.628l.26.219A13.648,13.648,0,0,0,772.186,352.651Z" transform="translate(-418.054 -201.109)" fill="#4b4442"/>
    <path id="Caminho_115" data-name="Caminho 115" d="M310.342,558.765a6.262,6.262,0,0,1-1.4-4.768l20.1-164.474,1.667-13.662a6.307,6.307,0,0,1,6.212-5.538l58.878-.392a6.3,6.3,0,0,0,6.257-6.471l-.023-.624a6.3,6.3,0,0,1,6.3-6.517H470.2a6.3,6.3,0,0,1,6.3,6.284,6.724,6.724,0,0,1-.055.847,6.3,6.3,0,0,0,6.084,7.131l59.42,1.516A6.294,6.294,0,0,1,548,379.459l-29.705,173.5-.56,3.279a6.162,6.162,0,0,1-.911,2.35Z" transform="translate(-183.501 -207.911)" fill="#b7b6cc"/>
    <g id="Grupo_109" data-name="Grupo 109" transform="translate(237.613 112.232)" opacity="0.5">
      <rect id="Retângulo_38" data-name="Retângulo 38" width="119.691" height="36.595" transform="matrix(0.568, -0.823, 0.823, 0.568, 0, 98.475)" fill="url(#linear-gradient-3)"/>
    </g>
    <rect id="Retângulo_39" data-name="Retângulo 39" width="34.792" height="118.088" transform="matrix(0.823, 0.568, -0.568, 0.823, 306.155, 113.564)" fill="#f9fafb"/>
    <rect id="Retângulo_40" data-name="Retângulo 40" width="24.563" height="24.563" transform="matrix(0.821, 0.571, -0.571, 0.821, 308.217, 118.167)" fill="#f7b643"/>
    <rect id="Retângulo_41" data-name="Retângulo 41" width="24.596" height="24.596" transform="matrix(0.823, 0.568, -0.568, 0.823, 292.418, 142.473)" fill="#f7b643" opacity="0.5"/>
    <rect id="Retângulo_42" data-name="Retângulo 42" width="24.596" height="24.596" transform="matrix(0.823, 0.568, -0.568, 0.823, 275.534, 166.904)" fill="#f7b643" opacity="0.3"/>
    <g id="Grupo_110" data-name="Grupo 110" transform="translate(231.334 106.371)" opacity="0.5">
      <rect id="Retângulo_43" data-name="Retângulo 43" width="119.245" height="36.595" transform="matrix(0.28, -0.96, 0.96, 0.28, 0, 114.457)" fill="url(#linear-gradient-4)"/>
    </g>
    <rect id="Retângulo_44" data-name="Retângulo 44" width="34.792" height="117.642" transform="matrix(0.96, 0.28, -0.28, 0.96, 265.711, 107.479)" fill="#f9fafb"/>
    <rect id="Retângulo_45" data-name="Retângulo 45" width="24.596" height="24.596" transform="matrix(0.96, 0.28, -0.28, 0.96, 270.095, 110.738)" fill="#f97878"/>
    <rect id="Retângulo_46" data-name="Retângulo 46" width="24.596" height="24.596" transform="matrix(0.96, 0.28, -0.28, 0.96, 261.765, 139.24)" fill="#f97878" opacity="0.5"/>
    <rect id="Retângulo_47" data-name="Retângulo 47" width="24.596" height="24.596" transform="matrix(0.96, 0.28, -0.28, 0.96, 253.436, 167.737)" fill="#f97878" opacity="0.3"/>
    <g id="Grupo_111" data-name="Grupo 111" transform="translate(231.397 108.359)" opacity="0.5">
      <rect id="Retângulo_48" data-name="Retângulo 48" width="119.245" height="36.595" transform="matrix(0.08, -0.997, 0.997, 0.08, 0, 118.861)" fill="url(#linear-gradient-5)"/>
    </g>
    <rect id="Retângulo_49" data-name="Retângulo 49" width="34.792" height="117.642" transform="matrix(0.997, 0.08, -0.08, 0.997, 242.057, 109.26)" fill="#f9fafb"/>
    <rect id="Retângulo_50" data-name="Retângulo 50" width="24.596" height="24.596" transform="matrix(0.997, 0.08, -0.08, 0.997, 246.992, 111.566)" fill="#73b53b"/>
    <rect id="Retângulo_51" data-name="Retângulo 51" width="24.596" height="24.596" transform="matrix(0.997, 0.08, -0.08, 0.997, 244.608, 141.158)" fill="#73b53b" opacity="0.5"/>
    <rect id="Retângulo_52" data-name="Retângulo 52" width="24.596" height="24.596" transform="matrix(0.997, 0.08, -0.08, 0.997, 242.228, 170.76)" fill="#73b53b" opacity="0.3"/>
    <g id="Grupo_112" data-name="Grupo 112" transform="translate(225.217 111.561)" opacity="0.5">
      <rect id="Retângulo_53" data-name="Retângulo 53" width="36.595" height="119.245" transform="translate(0 1.667) rotate(-2.61)" fill="url(#linear-gradient-6)"/>
    </g>
    <rect id="Retângulo_54" data-name="Retângulo 54" width="34.792" height="117.642" transform="translate(226.454 113.973) rotate(-2.61)" fill="#fff"/>
    <rect id="Retângulo_55" data-name="Retângulo 55" width="24.596" height="24.596" transform="translate(231.635 115.635) rotate(-2.61)" fill="#2bedbf"/>
    <rect id="Retângulo_56" data-name="Retângulo 56" width="24.627" height="24.627" transform="translate(233.951 144.358) rotate(-2.862)" fill="#2bedbf" opacity="0.5"/>
    <rect id="Retângulo_57" data-name="Retângulo 57" width="24.596" height="24.596" transform="translate(234.339 174.961) rotate(-2.61)" fill="#2bedbf" opacity="0.3"/>
    <path id="Caminho_116" data-name="Caminho 116" d="M371.1,462.583l-30.912,11.959-45.18,17.464c-1.708-3.188-4.221-7.5-7.332-12.637-10.7-17.733-28.407-45.316-44.173-69.557-17.76-27.324-33.048-50.38-33.048-50.38l11.066-3.188L311.922,330Z" transform="translate(-129.892 -193.577)" fill="#e6ecf8"/>
    <path id="Caminho_117" data-name="Caminho 117" d="M384.344,462.583l-30.912,11.959a232.347,232.347,0,0,1-52.525,4.827c-10.7-17.733-28.407-45.316-44.173-69.557L234.77,356.226,325.161,330Z" transform="translate(-143.131 -193.577)" opacity="0.1"/>
    <path id="Caminho_118" data-name="Caminho 118" d="M402.195,439.359s-48.021,28.407-119.718,21.982L225.32,321.991l27.392-4.709,94.695-16.262,53.736,135.63Z" transform="translate(-137.985 -177.794)" fill="#2bedbf"/>
    <path id="Caminho_119" data-name="Caminho 119" d="M433.883,436.69a226.991,226.991,0,0,1-37.552-1.07c-14.245-1.676-28.571-5.128-40.853-11.458a123.8,123.8,0,0,1-26.7-17.938c-19.914-17.911-32.237-43.531-43.3-88.9l94.694-16.262Z" transform="translate(-170.743 -177.816)" opacity="0.1"/>
    <path id="Caminho_120" data-name="Caminho 120" d="M461.428,380.368S426.03,387.3,390,383.032c-14.245-1.676-28.571-5.128-40.853-11.458a123.915,123.915,0,0,1-26.7-17.938C297.8,331.463,284.78,297.482,271.36,228.859c0,0,58.846,14.2,117.036-16.909C388.378,211.973,407.992,334.373,461.428,380.368Z" transform="translate(-163.058 -129.286)" fill="#f9fafb"/>
    <path id="Caminho_121" data-name="Caminho 121" d="M451.088,536.72c-14.245-1.676-28.571-5.128-40.853-11.458a123.917,123.917,0,0,1-26.7-17.938c20.985-1.7,24-13.175,24-13.175C423.086,518.837,451.088,536.72,451.088,536.72Z" transform="translate(-224.147 -282.974)" opacity="0.1"/>
    <path id="Caminho_122" data-name="Caminho 122" d="M338.2,288.83s47.853-2.705,61.214-13.02l2.026,6.512s-31.618,13.949-63.24,14.117Z" transform="translate(-199.46 -164.064)" fill="#2bedbf" opacity="0.3"/>
    <path id="Caminho_123" data-name="Caminho 123" d="M338.2,351.745s46.332-2.537,81.338-19.445l1.184,2.705s-27.779,16.217-82.522,20.461Z" transform="translate(-199.46 -194.829)" fill="#2bedbf" opacity="0.3"/>
    <path id="Caminho_124" data-name="Caminho 124" d="M346.39,379.255s46.332-2.537,81.333-19.445l1.184,2.705s-27.779,16.212-82.517,20.461Z" transform="translate(-203.92 -209.811)" fill="#2bedbf" opacity="0.3"/>
    <path id="Caminho_125" data-name="Caminho 125" d="M354.57,406.805s46.332-2.537,81.338-19.445l1.179,2.705s-27.779,16.217-82.517,20.461Z" transform="translate(-208.375 -224.815)" fill="#2bedbf" opacity="0.3"/>
    <path id="Caminho_126" data-name="Caminho 126" d="M362.76,434.355s46.332-2.537,81.333-19.445l1.184,2.705S417.5,433.832,362.76,438.076Z" transform="translate(-212.835 -239.819)" fill="#2bedbf" opacity="0.3"/>
    <path id="Caminho_127" data-name="Caminho 127" d="M370.94,461.915s46.332-2.537,81.338-19.445l1.179,2.705s-27.779,16.212-82.517,20.461Z" transform="translate(-217.29 -254.828)" fill="#2bedbf" opacity="0.3"/>
    <path id="Caminho_128" data-name="Caminho 128" d="M1065.774,827.21s-19.254-1.161-16.986,12.332a3.281,3.281,0,0,0,1.712,3.466s.032-1,1.972-.66a8.845,8.845,0,0,0,2.095.1,4.326,4.326,0,0,0,2.555-1.057h0s5.415-2.236,7.519-11.08c0,0,1.557-1.931,1.494-2.427l-3.247,1.366a5.819,5.819,0,0,1,.237,4.29s-.1-4.2-.729-4.1c-.128,0-1.689.811-1.689.811s1.908,4.1.455,7.049c0,0,.547-5.032-1.066-6.754l-2.277,1.334s2.231,4.217.719,7.66c0,0,.387-5.278-1.2-7.336l-2.072,1.617s2.1,4.158.82,7.013c0,0-.168-6.148-1.271-6.612a11.781,11.781,0,0,0-2.086,2.277s1.434,3.015.542,4.609c0,0-.546-4.1-.993-4.1,0,0-1.822,2.732-1.995,4.554a9.849,9.849,0,0,1,1.557-4.832,5.465,5.465,0,0,0-2.769,1.434s.282-1.922,3.215-2.086a12.8,12.8,0,0,1,1.89-2.186,11.9,11.9,0,0,0-4.681.542s1.557-1.822,5.219-.988l2.045-1.667s-3.839-.528-5.465.055c0,0,1.872-1.6,6.016-.455l2.227-1.33a20.277,20.277,0,0,0-5.219-.455s2.054-1.111,5.875.091l1.589-.715s-2.4-.455-3.1-.547-.742-.264-.742-.264a8.261,8.261,0,0,1,4.5.5S1065.829,827.424,1065.774,827.21Z" transform="translate(-586.35 -464.347)" fill="#2bedbf"/>
    <ellipse id="Elipse_22" data-name="Elipse 22" cx="13.625" cy="2.304" rx="13.625" ry="2.304" transform="translate(452.538 377.531)" fill="#2bedbf" opacity="0.1"/>
    <ellipse id="Elipse_23" data-name="Elipse 23" cx="46.45" cy="4.208" rx="46.45" ry="4.208" transform="translate(324.126 367.026)" fill="#2bedbf" opacity="0.1"/>
    <path id="Caminho_129" data-name="Caminho 129" d="M1094.436,729.413s-10.852-.656-9.563,6.954a1.853,1.853,0,0,0,.961,1.954s.023-.565,1.116-.373a5.06,5.06,0,0,0,1.179.055,2.432,2.432,0,0,0,1.439-.592h0s3.051-1.261,4.24-6.248c0,0,.879-1.088.843-1.366l-1.822.779a3.3,3.3,0,0,1,.132,2.423s-.059-2.373-.41-2.318c-.073,0-.952.455-.952.455s1.075,2.277.264,3.976c0,0,.31-2.837-.6-3.812l-1.289.756s1.257,2.377.405,4.317c0,0,.219-2.978-.678-4.135l-1.166.911s1.179,2.345.455,3.953c0,0-.1-3.466-.715-3.725a7.283,7.283,0,0,0-1.179,1.271s.811,1.7.31,2.6c0,0-.31-2.309-.56-2.318a7.611,7.611,0,0,0-1.125,2.573,5.575,5.575,0,0,1,.879-2.732,3.052,3.052,0,0,0-1.562.811s.159-1.084,1.822-1.175a7.269,7.269,0,0,1,1.066-1.234,6.712,6.712,0,0,0-2.641.305,2.967,2.967,0,0,1,2.942-.556l1.157-.943a9.521,9.521,0,0,0-3.083.032s1.056-.911,3.393-.246l1.257-.751a11.344,11.344,0,0,0-2.946-.25,4.5,4.5,0,0,1,3.311.05l.911-.4s-1.366-.269-1.749-.31-.419-.15-.419-.15a4.7,4.7,0,0,1,2.541.282A11.009,11.009,0,0,0,1094.436,729.413Z" transform="translate(-606.045 -411.092)" fill="#2bedbf"/>
    <ellipse id="Elipse_24" data-name="Elipse 24" cx="7.682" cy="1.298" rx="7.682" ry="1.298" transform="translate(473.24 326.591)" fill="#2bedbf" opacity="0.1"/>
    <path id="Caminho_130" data-name="Caminho 130" d="M951.346,743.909s-13.106-.792-11.558,8.393a2.236,2.236,0,0,0,1.161,2.359s0-.683,1.366-.455a5.985,5.985,0,0,0,1.425.068,2.942,2.942,0,0,0,1.74-.72h0s3.684-1.521,5.119-7.541c0,0,1.061-1.312,1.016-1.653l-2.236.947a3.953,3.953,0,0,1,.159,2.919s-.073-2.86-.5-2.8c-.087,0-1.148.556-1.148.556s1.3,2.778.319,4.8c0,0,.373-3.425-.724-4.6l-1.557.911s1.516,2.874.487,5.214c0,0,.264-3.593-.815-5.009l-1.412,1.1s1.43,2.828.556,4.773c0,0-.109-4.185-.861-4.5a8.577,8.577,0,0,0-1.421,1.535s.975,2.054.369,3.138c0,0-.373-2.787-.679-2.8a9.528,9.528,0,0,0-1.366,3.11,6.727,6.727,0,0,1,1.061-3.288,3.688,3.688,0,0,0-1.881.979s.191-1.307,2.186-1.421a8.4,8.4,0,0,1,1.289-1.485,8.071,8.071,0,0,0-3.188.364s1.057-1.229,3.547-.669L945.2,747a11.586,11.586,0,0,0-3.721.036s1.275-1.088,4.1-.291l1.516-.911a13.788,13.788,0,0,0-3.557-.305s1.4-.756,4,.064l1.084-.487s-1.63-.319-2.109-.369-.5-.182-.5-.182a5.629,5.629,0,0,1,3.065.337A14.044,14.044,0,0,0,951.346,743.909Z" transform="translate(-527.019 -418.985)" fill="#2bedbf"/>
    <ellipse id="Elipse_25" data-name="Elipse 25" cx="9.276" cy="1.567" rx="9.276" ry="1.567" transform="translate(406.024 334.911)" fill="#2bedbf" opacity="0.1"/>
    <ellipse id="Elipse_26" data-name="Elipse 26" cx="13.625" cy="2.304" rx="13.625" ry="2.304" transform="translate(11.262 370.664)" fill="#2bedbf" opacity="0.1"/>
    <path id="Caminho_131" data-name="Caminho 131" d="M68.1,820.91s7.769-.237,10.114-1.9,11.954-3.643,12.537-.988,11.681,13.307,2.905,13.379-20.388-1.366-22.729-2.792S68.1,820.91,68.1,820.91Z" transform="translate(-52.362 -458.648)" fill="#a8a8a8"/>
    <path id="Caminho_132" data-name="Caminho 132" d="M93.8,835.463c-8.775.073-20.388-1.366-22.729-2.792-1.776-1.084-2.486-4.977-2.732-6.772h-.26s.492,6.271,2.828,7.7,13.985,2.869,22.738,2.823c2.532-.023,3.406-.911,3.361-2.277C96.651,834.944,95.686,835.45,93.8,835.463Z" transform="translate(-52.351 -463.647)" opacity="0.2"/>
    <rect id="Retângulo_58" data-name="Retângulo 58" width="77.722" height="139.086" transform="matrix(0.309, -0.951, 0.951, 0.309, 359.627, 73.916)" fill="url(#linear-gradient-7)"/>
    <rect id="Retângulo_59" data-name="Retângulo 59" width="76.652" height="137.165" transform="matrix(0.309, -0.951, 0.951, 0.309, 360.706, 73.706)" fill="#f6f7f9"/>
    <g id="Grupo_113" data-name="Grupo 113" transform="translate(384.161 26.874)" opacity="0.2">
      <circle id="Elipse_27" data-name="Elipse 27" cx="14.281" cy="14.281" r="14.281" fill="#2bedbf"/>
    </g>
    <g id="Grupo_114" data-name="Grupo 114" transform="translate(432.609 34.865)" opacity="0.2">
      <rect id="Retângulo_60" data-name="Retângulo 60" width="3.912" height="62.22" transform="matrix(0.309, -0.951, 0.951, 0.309, 0, 3.72)" fill="#2bedbf"/>
    </g>
    <g id="Grupo_115" data-name="Grupo 115" transform="translate(429.525 44.35)" opacity="0.2">
      <rect id="Retângulo_61" data-name="Retângulo 61" width="3.912" height="31.695" transform="matrix(0.309, -0.951, 0.951, 0.309, 0, 3.72)" fill="#2bedbf"/>
    </g>
    <g id="Grupo_116" data-name="Grupo 116" transform="translate(426.436 53.841)" opacity="0.2">
      <rect id="Retângulo_62" data-name="Retângulo 62" width="3.912" height="51.264" transform="matrix(0.309, -0.951, 0.951, 0.309, 0, 3.72)" fill="#2bedbf"/>
    </g>
    <g id="Grupo_117" data-name="Grupo 117" transform="translate(423.353 63.328)" opacity="0.2">
      <rect id="Retângulo_63" data-name="Retângulo 63" width="3.912" height="62.22" transform="matrix(0.309, -0.951, 0.951, 0.309, 0, 3.72)" fill="#2bedbf"/>
    </g>
    <g id="Grupo_118" data-name="Grupo 118" transform="translate(460.569 90.94)" opacity="0.5">
      <rect id="Retângulo_64" data-name="Retângulo 64" width="7.564" height="17.218" transform="matrix(0.309, -0.951, 0.951, 0.309, 0, 7.193)" fill="#2bedbf"/>
    </g>
    <path id="Caminho_133" data-name="Caminho 133" d="M855.565,466.543a4.173,4.173,0,0,0-.046-.455,2.32,2.32,0,0,0-.077-.455c-.059-.31-.123-.615-.2-.911-.036-.141-.073-.287-.114-.424a11.548,11.548,0,0,0-2.277-4.4c-.059-.073-.123-.141-.182-.209s-.246-.264-.369-.387-.237-.232-.355-.337-.228-.2-.337-.291c-.219-.178-.423-.328-.6-.455a3.725,3.725,0,0,0-.369-.237,2.022,2.022,0,0,0-.856-.278l-1.89-.187h0l-2.582-.255-9.231-3.584-.364.128a20.949,20.949,0,0,1-.683-2.277,2.04,2.04,0,0,0,.729-.533,1.662,1.662,0,0,0,.5-.642c.232-.537-.214-1.68-.123-2.336a11.025,11.025,0,0,1,1.138-3.019,14.007,14.007,0,0,0,1.526-6.508,7.34,7.34,0,0,0-3.033-5.774c-.979-.651-2.131-1-3.151-1.589-.792-.455-1.489-1.066-2.245-1.585a12.906,12.906,0,0,0-12.715-.911,62.031,62.031,0,0,0-5.36,3.488,9.048,9.048,0,0,1-6.057,1.667,1.482,1.482,0,0,0-.064.264l-.178-.023c-.364.993.528,1.976,1.366,2.655,1.562,1.289,3.333,2.573,5.369,2.618a5.64,5.64,0,0,1,2.336.173,2.139,2.139,0,0,1,.455.273,10.146,10.146,0,0,0,3.188,10.114l-4.713-1.694s-.2.1-.5.291l-6.539-4.354s-13.111-4.754-16.754,2.65S806,450.335,806,450.335l4.158,2.277a3.785,3.785,0,0,0,.455,2.5l11.335,7a59.869,59.869,0,0,1-6.722,1.822c-.97,0-3.643.956-5.342,4.777s-7.774,22.46-13.115,25.566-19.427,23.894-19.427,23.894l.064.164c-.25.068-.5.137-.738.219a14.928,14.928,0,0,0-7.318,5.519,2.341,2.341,0,0,0,1.639,3.693c5.56.706,8.6-1.858,10.06-3.793.1-.123.182-.246.264-.369a1.944,1.944,0,0,0,1.366.064l6.8-5.5s-5.319,5.237-2.2,10.019l-.237.332A76.009,76.009,0,0,0,775.657,553.3s-2.914,2.149-3.156,10.752-3.16,22.46-3.16,22.46-1.94,16.49-.729,21.5c0,0,.141.2.4.505-.091.109-.191.228-.3.346-1.061,1.148-2.974,2.732-5.2,2.277-3.4-.719-3.4,5.255,1.457,5.733a129.418,129.418,0,0,1,13.261,2.66,2.792,2.792,0,0,0,3.461-2.978,25.222,25.222,0,0,0-1.457-6.576c-.05-.114-.1-.228-.15-.332.141-.137.287-.273.428-.419,0,0,0-10.515,1.7-13.379,0,0,4.613-21.745,4.367-27.242-.187-4.3,11.972-21.044,17.264-28.116l-.046-.269c1.366-1.822,2.213-2.915,2.213-2.915l4.094,26.048s1.945,5.733,4.372,8.839c0,0,10.442,19.832,11.658,26.044a19.59,19.59,0,0,0,3.68,8.57l-.314.3a5.316,5.316,0,0,1-4.581,1.644c-3.4-.72-3.4,5.255,1.457,5.733a130.454,130.454,0,0,1,13.257,2.664,2.8,2.8,0,0,0,3.466-2.983c-.278-2.487-.82-5.579-1.867-7.4a5.12,5.12,0,0,0-.278-.455,2.559,2.559,0,0,0,.965-.679s-6.316-15.055-6.316-19.126c0,0-2.669-15.529-11.654-21.262,0,0,.847-19.427,3.406-30.238.064-.264.128-.528.191-.783a72.05,72.05,0,0,0,7.086-1.475l.241-7.168,1.216,5.733,13.6-8.361s-.118-1.507-.346-3.816c-.118-1.157-.26-2.514-.428-3.985-.137-1.175-.292-2.423-.455-3.7-.046-.319-.086-.642-.132-.961-.178-1.289-.373-2.591-.583-3.866q-.123-.72-.246-1.421c-.114-.624-.228-1.234-.346-1.822-.059-.3-.123-.592-.182-.879s-.128-.574-.191-.852-.128-.546-.191-.815c-.036-.132-.068-.264-.1-.392-.068-.26-.137-.515-.2-.76a13.667,13.667,0,0,1-.492-3.133V495.3a9.033,9.033,0,0,1,.123-1.257c.027-.2.064-.414.1-.619a13.9,13.9,0,0,1,.688-2.441c.15-.4.323-.788.51-1.175.455-.911.911-1.881,1.393-2.915.246-.515.492-1.043.738-1.58s.5-1.084.747-1.639c2.364-5.269,4.7-11.139,5.319-15,.064-.405.114-.788.137-1.148a7.318,7.318,0,0,0,.014-.984Z" transform="translate(-429.786 -246.605)" fill="url(#linear-gradient-8)"/>
    <path id="Caminho_134" data-name="Caminho 134" d="M849.9,473.735l-8.01-5.415s-12.719-4.713-16.253,2.591,15.31,3.534,15.31,3.534l8.01,4.472Z" transform="translate(-464.678 -268.092)" fill="#ae6e79"/>
    <rect id="Retângulo_65" data-name="Retângulo 65" width="76.617" height="119.273" transform="matrix(0.541, -0.841, 0.841, 0.541, 298.311, 250.569)" fill="#f9fafb"/>
    <rect id="Retângulo_66" data-name="Retângulo 66" width="21.677" height="5.1" transform="matrix(0.536, -0.844, 0.844, 0.536, 313.179, 246.073)" fill="#b7b6cc"/>
    <rect id="Retângulo_67" data-name="Retângulo 67" width="47.607" height="4.677" transform="matrix(0.536, -0.844, 0.844, 0.536, 326.939, 249.779)" fill="#b7b6cc"/>
    <rect id="Retângulo_68" data-name="Retângulo 68" width="47.607" height="4.677" transform="matrix(0.536, -0.844, 0.844, 0.536, 335.372, 255.132)" fill="#b7b6cc"/>
    <rect id="Retângulo_69" data-name="Retângulo 69" width="47.607" height="4.677" transform="matrix(0.536, -0.844, 0.844, 0.536, 343.802, 260.494)" fill="#b7b6cc"/>
    <rect id="Retângulo_70" data-name="Retângulo 70" width="47.54" height="4.67" transform="matrix(0.541, -0.841, 0.841, 0.541, 352.525, 268.263)" fill="#b7b6cc"/>
    <rect id="Retângulo_71" data-name="Retângulo 71" width="47.607" height="4.677" transform="matrix(0.536, -0.844, 0.844, 0.536, 360.665, 271.206)" fill="#fff"/>
    <rect id="Retângulo_72" data-name="Retângulo 72" width="47.607" height="4.677" transform="matrix(0.536, -0.844, 0.844, 0.536, 369.098, 276.559)" fill="#fff"/>
    <rect id="Retângulo_73" data-name="Retângulo 73" width="12.327" height="12.327" transform="matrix(0.536, -0.844, 0.844, 0.536, 404.501, 253.733)" fill="#b7b6cc"/>
    <path id="Caminho_135" data-name="Caminho 135" d="M911.624,829.922a125.072,125.072,0,0,0-12.86-2.623c-4.713-.455-4.713-6.375-1.412-5.656a5.1,5.1,0,0,0,4.44-1.617,10.414,10.414,0,0,0,.911-1,2.733,2.733,0,0,1,1.526-.934c1.767-.383,5.465-.965,7.7.25a3.329,3.329,0,0,1,1.22,1.339c1.016,1.822,1.544,4.85,1.822,7.286a2.732,2.732,0,0,1-3.347,2.951Z" transform="translate(-502.712 -459.135)" fill="#bebed0"/>
    <path id="Caminho_136" data-name="Caminho 136" d="M780.758,835.115a124.761,124.761,0,0,0-12.856-2.623c-4.713-.455-4.713-6.375-1.416-5.651,2.159.455,4.017-1.1,5.041-2.227.128-.137.241-.269.337-.392a2.732,2.732,0,0,1,1.521-.911c1.767-.387,5.465-.97,7.705.25a4.169,4.169,0,0,1,1.617,2.154,25.5,25.5,0,0,1,1.412,6.48,2.732,2.732,0,0,1-3.361,2.919Z" transform="translate(-431.444 -461.974)" fill="#bebed0"/>
    <path id="Caminho_137" data-name="Caminho 137" d="M791.51,825.7c-5.624,5.8-10.447-.109-11.18-1.084.128-.137.241-.269.337-.392a2.732,2.732,0,0,1,1.521-.911c1.767-.387,5.465-.97,7.705.25A3.932,3.932,0,0,1,791.51,825.7Z" transform="translate(-440.247 -461.974)" opacity="0.1"/>
    <path id="Caminho_138" data-name="Caminho 138" d="M921.26,819.685c-2.436,1.662-10.638,1.252-10.638,1.252a7.7,7.7,0,0,1-.742-.911,10.389,10.389,0,0,0,.911-1,2.733,2.733,0,0,1,1.526-.934c1.767-.383,5.465-.965,7.7.25A3.328,3.328,0,0,1,921.26,819.685Z" transform="translate(-510.801 -459.135)" opacity="0.1"/>
    <path id="Caminho_139" data-name="Caminho 139" d="M850.566,725.131c-1.653,2.122-11.071,1.648-11.071,1.648s-2.828-2.828-4.007-8.948-11.307-25.675-11.307-25.675c-2.354-3.065-4.24-8.716-4.24-8.716l-4-25.675s-19.313,25.438-19.076,30.857-4.244,26.868-4.244,26.868c-1.649,2.828-1.649,13.206-1.649,13.206-6.12,6.375-11.3-1.18-11.3-1.18-1.179-4.946.706-21.2.706-21.2s2.828-13.662,3.06-22.141,3.065-10.6,3.065-10.6a75.537,75.537,0,0,1,11.062-24.436c1.421-2.036,2.363-3.124,2.363-3.124l38.157,4.477a24.028,24.028,0,0,0-1.639,5.055c-2.482,10.656-3.306,29.805-3.306,29.805,8.716,5.651,11.307,20.948,11.307,20.948C844.441,710.29,850.566,725.131,850.566,725.131Z" transform="translate(-439.674 -365.683)" fill="#5c5c8e"/>
    <g id="Grupo_119" data-name="Grupo 119" transform="translate(345.02 280.328)" opacity="0.05">
      <path id="Caminho_140" data-name="Caminho 140" d="M820.315,674.948l-.492-3.138s-19.313,25.438-19.076,30.857-4.24,26.868-4.24,26.868c-1.653,2.828-1.653,13.206-1.653,13.206a8.052,8.052,0,0,1-3.684,2.364c1.853.487,4.1.128,6.512-2.364,0,0,0-10.365,1.649-13.206,0,0,4.477-21.435,4.24-26.868C803.388,698.428,815.178,681.915,820.315,674.948Z" transform="translate(-791.17 -660.056)"/>
      <path id="Caminho_141" data-name="Caminho 141" d="M869.34,706.276s-2.591-15.31-11.3-20.948c0,0,.824-19.149,3.3-29.806a24,24,0,0,1,1.644-5.055L824.825,646s-.091.1-.255.3l35.584,4.176a24.024,24.024,0,0,0-1.639,5.055c-2.482,10.656-3.306,29.805-3.306,29.805,8.716,5.651,11.307,20.948,11.307,20.948,0,4,6.125,18.844,6.125,18.844-.975,1.248-4.645,1.6-7.5,1.676,2.277.059,8.958.082,10.324-1.676C875.465,725.12,869.34,710.279,869.34,706.276Z" transform="translate(-809.36 -646)"/>
    </g>
    <path id="Caminho_142" data-name="Caminho 142" d="M793.671,633.89a8.605,8.605,0,0,1-1.116,1.949c-1.416,1.908-4.363,4.431-9.755,3.739a2.318,2.318,0,0,1-1.594-3.643,14.514,14.514,0,0,1,7.1-5.465,12.958,12.958,0,0,1,3.01-.61Z" transform="translate(-440.49 -356.882)" fill="#ae6e79"/>
    <path id="Caminho_143" data-name="Caminho 143" d="M891.208,485.788l-18.89-6.908s-5.419,2.828-3.3,6.831l18.393,11.544Z" transform="translate(-488.28 -274.658)" fill="#42383c"/>
    <path id="Caminho_144" data-name="Caminho 144" d="M891.362,485.958l-18.894-6.908s-5.419,2.823-3.3,6.831l18.371,11.54Z" transform="translate(-488.362 -274.75)" opacity="0.1"/>
    <path id="Caminho_145" data-name="Caminho 145" d="M907.659,468.494s-.237,11.071,4.713,14.841S898,489.224,898,489.224s3.065-11.307,0-17.2S907.659,468.494,907.659,468.494Z" transform="translate(-504.071 -268.748)" fill="#ae6e79"/>
    <path id="Caminho_146" data-name="Caminho 146" d="M859.941,650.427a24.028,24.028,0,0,0-1.639,5.055c-22.77,3.479-38.64-6-38.64-6-.086-.137-.168-.273-.241-.41,1.421-2.036,2.364-3.124,2.364-3.124Z" transform="translate(-461.535 -365.645)" opacity="0.1"/>
    <path id="Caminho_147" data-name="Caminho 147" d="M802.675,633.917a8.606,8.606,0,0,1-1.116,1.949c-2.181-.364-3.926-4.554-4.249-5.346a12.96,12.96,0,0,1,3.01-.61Z" transform="translate(-449.494 -356.91)" opacity="0.1"/>
    <path id="Caminho_148" data-name="Caminho 148" d="M855.752,490.78l-8.479,3.06-3.534,4.713s-7.286,2.354-8.243,2.354-3.534.943-5.182,4.709-7.537,22.15-12.719,25.206-18.844,23.553-18.844,23.553,2.354,6.375,5.182,5.419l6.594-5.419s-5.182,5.182-2.122,9.9c0,0,19.318,11.54,45.935,4.472l.232-7.063,1.179,5.651,13.206-8.243s-1.179-15.206-3.306-22.943a13.99,13.99,0,0,1,.911-9.75c3.42-7.127,8.7-19.031,8.056-23.371-.76-5.114-3.643-7.336-4.754-8.006a1.967,1.967,0,0,0-.829-.278l-4.312-.428Z" transform="translate(-450.278 -281.138)" fill="#42383c"/>
    <path id="Caminho_149" data-name="Caminho 149" d="M856.9,542.76s-4.713,21.9-9.9,25.438-19.076,14.841-19.55,16.727" transform="translate(-465.909 -309.447)" opacity="0.05"/>
    <path id="Caminho_150" data-name="Caminho 150" d="M852.241,541.21s-4.709,21.9-9.891,25.438S823.269,581.49,822.8,583.37" transform="translate(-463.376 -308.603)" fill="#42383c"/>
    <path id="Caminho_151" data-name="Caminho 151" d="M897.28,502.517s16.253-5.419,20.948-4.007" transform="translate(-503.939 -285.22)" opacity="0.1"/>
    <g id="Grupo_120" data-name="Grupo 120" transform="translate(404.676 209.642)" opacity="0.05">
      <path id="Caminho_152" data-name="Caminho 152" d="M934.381,530.927c3.42-7.127,8.7-19.031,8.056-23.371-.76-5.114-3.643-7.336-4.754-8.006a1.967,1.967,0,0,0-.829-.278l-1.822-.182a1.822,1.822,0,0,1,.547.223c1.1.674,3.994,2.892,4.75,8.01.642,4.335-4.636,16.244-8.051,23.371a13.981,13.981,0,0,0-.911,9.745c2.131,7.742,3.311,22.943,3.311,22.943l-11.357,7.1.287,1.366,13.206-8.243s-1.18-15.206-3.306-22.943a13.99,13.99,0,0,1,.874-9.736Z" transform="translate(-922.796 -495.306)"/>
      <path id="Caminho_153" data-name="Caminho 153" d="M896.258,463.647l2.04.2-8.871-3.5-.8.287Z" transform="translate(-888.63 -460.35)"/>
    </g>
    <path id="Caminho_154" data-name="Caminho 154" d="M887.45,587.437s7.286-4,9.659-3.06,11.071-.237,11.071-.237" transform="translate(-498.585 -331.983)" opacity="0.05"/>
    <path id="Caminho_155" data-name="Caminho 155" d="M906.866,472.568c-.269-2.363.824-2,.824-2s-12.719-2.354-9.659,3.534a13.49,13.49,0,0,1,1.293,5.178h.123C902.982,479.28,905.045,475.327,906.866,472.568Z" transform="translate(-504.089 -269.876)" opacity="0.05"/>
    <circle id="Elipse_28" data-name="Elipse 28" cx="10.128" cy="10.128" r="10.128" transform="translate(385.217 188.206)" fill="#ae6e79"/>
    <path id="Caminho_156" data-name="Caminho 156" d="M889.9,451.743a14.12,14.12,0,0,0,1.48-6.416,7.276,7.276,0,0,0-2.942-5.7c-.947-.638-2.068-.979-3.056-1.562-.77-.455-1.448-1.052-2.181-1.562a12.346,12.346,0,0,0-12.332-.911,56.667,56.667,0,0,0-5.2,3.443,8.706,8.706,0,0,1-5.875,1.644c-.355.979.515,1.945,1.312,2.618,1.516,1.271,3.233,2.537,5.21,2.578a5.452,5.452,0,0,1,2.277.173,3.265,3.265,0,0,1,1.157,1.075,21.211,21.211,0,0,1,2.4,4.076,3.379,3.379,0,0,0,1.075,1.585c.911.583,2.09.1,3.188.055,1.676-.068,3.188.988,4.426,2.118a13.514,13.514,0,0,0,3.989,3.019c1.17.455,3.511.428,4.1-.97.223-.528-.209-1.658-.118-2.3a11.148,11.148,0,0,1,1.084-2.96Z" transform="translate(-483.483 -250.413)" opacity="0.1"/>
    <path id="Caminho_157" data-name="Caminho 157" d="M890.369,451.213a14.055,14.055,0,0,0,1.48-6.412,7.285,7.285,0,0,0-2.937-5.7c-.952-.642-2.072-.984-3.056-1.567-.77-.455-1.448-1.047-2.181-1.562a12.346,12.346,0,0,0-12.332-.911,56.637,56.637,0,0,0-5.2,3.438,8.682,8.682,0,0,1-5.875,1.644c-.355.984.51,1.949,1.312,2.618,1.516,1.271,3.233,2.537,5.21,2.582a5.378,5.378,0,0,1,2.277.173,3.188,3.188,0,0,1,1.157,1.075,20.956,20.956,0,0,1,2.4,4.071,3.388,3.388,0,0,0,1.079,1.585c.911.583,2.09.1,3.188.055,1.676-.064,3.188.993,4.422,2.122a13.4,13.4,0,0,0,3.994,3.015c1.17.455,3.511.428,4.1-.97.228-.528-.2-1.658-.114-2.3a11.139,11.139,0,0,1,1.075-2.955Z" transform="translate(-483.739 -250.124)" fill="#42383c"/>
    <path id="Caminho_158" data-name="Caminho 158" d="M516.813,596.289a4.7,4.7,0,0,1-3.015,1.066l-203.456-.865a6.262,6.262,0,0,1-1.4-4.768l20.1-164.474,12.605-.137a4.763,4.763,0,0,1,4.645,3.516l2.354,8.689a4.763,4.763,0,0,0,4.709,3.516l50.307-1.207a4.763,4.763,0,0,0,4.65-4.763V431.1a4.763,4.763,0,0,1,4.709-4.763l69.711-.751a4.763,4.763,0,0,1,4.722,3.866l30.83,161.209.2,1.038a4.736,4.736,0,0,1-1.676,4.586Z" transform="translate(-183.501 -245.635)" opacity="0.1"/>
    <path id="Caminho_159" data-name="Caminho 159" d="M430.9,430.6l-69.712.751a4.763,4.763,0,0,0-4.713,4.759v5.761a4.763,4.763,0,0,1-4.645,4.759l-50.3,1.207a4.759,4.759,0,0,1-4.713-3.516l-2.363-8.684a4.759,4.759,0,0,0-4.65-3.516l-67.193.724a4.759,4.759,0,0,0-4.645,5.556l27.032,159.1a4.763,4.763,0,0,0,4.677,3.966l212.277.911a4.763,4.763,0,0,0,4.7-5.656L435.619,434.466A4.759,4.759,0,0,0,430.9,430.6Z" transform="translate(-133.939 -248.364)" fill="#e6e8ee"/>
    <path id="Caminho_160" data-name="Caminho 160" d="M875.879,171.081l-.364,4.053.264,7.168-.77,12.091s-.109,5.3-3.1,7.778L864.271,213.9l-.046.023-2.874,1.4-4.385.455-2.277-5.515,1.507-6.057.838-1.129.232-.255c.911-1,4.426-4.64,7.218-5.774a3.951,3.951,0,0,0,1.535-3.507c-.328-2.14,2.514-13.516,2.514-13.516s1.822-7.523,1.425-8.256-.073-17.387,6.212-17.642S875.879,171.081,875.879,171.081Z" transform="translate(-480.744 -97.793)" fill="#f6bac2"/>
    <ellipse id="Elipse_29" data-name="Elipse 29" cx="7.382" cy="1.016" rx="7.382" ry="1.016" transform="translate(61.578 318.162)" fill="#2bedbf" opacity="0.1"/>
    <ellipse id="Elipse_30" data-name="Elipse 30" cx="7.382" cy="1.016" rx="7.382" ry="1.016" transform="translate(33.303 321.026)" fill="#2bedbf" opacity="0.1"/>
    <ellipse id="Elipse_31" data-name="Elipse 31" cx="7.382" cy="1.016" rx="7.382" ry="1.016" transform="translate(0 317.146)" fill="#2bedbf" opacity="0.1"/>
    <ellipse id="Elipse_32" data-name="Elipse 32" cx="5.246" cy="0.72" rx="5.246" ry="0.72" transform="translate(46.755 329.487)" fill="#2bedbf" opacity="0.1"/>
    <ellipse id="Elipse_33" data-name="Elipse 33" cx="5.246" cy="0.72" rx="5.246" ry="0.72" transform="translate(17.41 328.768)" fill="#2bedbf" opacity="0.1"/>
    <path id="Caminho_161" data-name="Caminho 161" d="M84.94,670.081s10.351-33.936-1.621-47.529c-8.958-10.169-19.127-8.953-23.68-7.7a8.42,8.42,0,0,0-5.428,4.513c-1.594,3.434-1.307,9.008,9.932,15.515,18.812,10.893,19.983,25.834,19.983,25.834Z" transform="translate(-44.415 -348.262)" fill="#2bedbf"/>
    <path id="Caminho_162" data-name="Caminho 162" d="M70.54,626.41s30.511,9.563,23.68,50.412" transform="translate(-53.69 -355.003)" fill="none" stroke="#565987" stroke-miterlimit="10" stroke-width="1"/>
    <path id="Caminho_163" data-name="Caminho 163" d="M105.94,633.92s-4.2,2.833-2.864,7.091" transform="translate(-71.266 -359.093)" fill="none" stroke="#565987" stroke-miterlimit="10" stroke-width="1"/>
    <path id="Caminho_164" data-name="Caminho 164" d="M77.26,637.54s2.568-2.614,5.7-1.17" transform="translate(-57.35 -360.191)" fill="none" stroke="#565987" stroke-miterlimit="10" stroke-width="1"/>
    <path id="Caminho_165" data-name="Caminho 165" d="M103.75,667.291s4.513-2.277,5.679.578" transform="translate(-71.777 -376.799)" fill="none" stroke="#565987" stroke-miterlimit="10" stroke-width="1"/>
    <path id="Caminho_166" data-name="Caminho 166" d="M124.137,678.77s-3.388-.269-3.447,1.366" transform="translate(-81.002 -383.51)" fill="none" stroke="#565987" stroke-miterlimit="10" stroke-width="1"/>
    <path id="Caminho_167" data-name="Caminho 167" d="M101.572,708.826S89.445,684.162,86.116,684.69c-1.58.26-2.309,1.822-2.641,3.379a9.923,9.923,0,0,0,.66,6C85.856,698.033,90.478,705.524,101.572,708.826Z" transform="translate(-60.627 -386.739)" fill="#2bedbf"/>
    <path id="Caminho_168" data-name="Caminho 168" d="M89.71,695s12.724,18.453,15.183,19.263" transform="translate(-64.131 -392.358)" fill="none" stroke="#565987" stroke-miterlimit="10" stroke-width="1"/>
    <line id="Linha_6" data-name="Linha 6" x2="2.969" transform="translate(24.409 305.525)" fill="none" stroke="#565987" stroke-miterlimit="10" stroke-width="1"/>
    <line id="Linha_7" data-name="Linha 7" x2="4.659" y2="0.2" transform="translate(27.966 312.274)" fill="none" stroke="#565987" stroke-miterlimit="10" stroke-width="1"/>
    <line id="Linha_8" data-name="Linha 8" x1="0.505" y2="2.427" transform="translate(30.297 306.873)" fill="none" stroke="#565987" stroke-miterlimit="10" stroke-width="1"/>
    <line id="Linha_9" data-name="Linha 9" x1="0.091" y2="2.204" transform="translate(35.662 314.255)" fill="none" stroke="#565987" stroke-miterlimit="10" stroke-width="1"/>
    <path id="Caminho_169" data-name="Caminho 169" d="M122.66,708.826s12.123-24.664,15.451-24.136c1.585.26,2.313,1.822,2.641,3.379a9.923,9.923,0,0,1-.66,6C138.371,698.033,133.744,705.524,122.66,708.826Z" transform="translate(-82.075 -386.739)" fill="#2bedbf"/>
    <path id="Caminho_170" data-name="Caminho 170" d="M138.237,695s-12.751,18.453-15.187,19.263" transform="translate(-82.288 -392.358)" fill="none" stroke="#565987" stroke-miterlimit="10" stroke-width="1"/>
    <line id="Linha_10" data-name="Linha 10" x1="2.969" transform="translate(54.151 305.525)" fill="none" stroke="#565987" stroke-miterlimit="10" stroke-width="1"/>
    <line id="Linha_11" data-name="Linha 11" x1="4.659" y2="0.2" transform="translate(48.905 312.274)" fill="none" stroke="#565987" stroke-miterlimit="10" stroke-width="1"/>
    <line id="Linha_12" data-name="Linha 12" x2="0.505" y2="2.427" transform="translate(50.726 306.873)" fill="none" stroke="#565987" stroke-miterlimit="10" stroke-width="1"/>
    <line id="Linha_13" data-name="Linha 13" x2="0.091" y2="2.204" transform="translate(45.776 314.255)" fill="none" stroke="#565987" stroke-miterlimit="10" stroke-width="1"/>
    <path id="Caminho_171" data-name="Caminho 171" d="M76.079,746.343a2.1,2.1,0,0,1-.688-1.043.911.911,0,0,1,.483-1.061,1.338,1.338,0,0,1,1.275.455,1.629,1.629,0,0,0,1.234.578,1.885,1.885,0,0,1-.583-1.767.719.719,0,0,1,.159-.36c.246-.264.692-.15.988.059a3.739,3.739,0,0,1,1.2,3.074,5.876,5.876,0,0,0,0-1.266,1.3,1.3,0,0,1,.51-1.107,1.421,1.421,0,0,1,.724-.173,1.5,1.5,0,0,1,1.179.337,1.17,1.17,0,0,1-.046,1.444,4.644,4.644,0,0,1-1.22.975,2.732,2.732,0,0,0-.87.833.609.609,0,0,0-.064.146h-2.65A7.349,7.349,0,0,1,76.079,746.343Z" transform="translate(-56.315 -418.495)" fill="#2bedbf"/>
    <path id="Caminho_172" data-name="Caminho 172" d="M177.528,724.555a2.063,2.063,0,0,1-.688-1.038.911.911,0,0,1,.478-1.061,1.338,1.338,0,0,1,1.275.455,1.679,1.679,0,0,0,1.243.6,1.885,1.885,0,0,1-.587-1.762.724.724,0,0,1,.164-.36c.246-.264.692-.15.988.055a3.685,3.685,0,0,1,1.2,3.078,5.922,5.922,0,0,0,0-1.271,1.3,1.3,0,0,1,.455-1.12,1.452,1.452,0,0,1,.724-.168,1.521,1.521,0,0,1,1.179.332,1.17,1.17,0,0,1-.05,1.448,4.554,4.554,0,0,1-1.216.975,2.7,2.7,0,0,0-.87.829.75.75,0,0,0-.064.15h-2.591A7.288,7.288,0,0,1,177.528,724.555Z" transform="translate(-111.564 -406.644)" fill="#2bedbf"/>
    <path id="Caminho_173" data-name="Caminho 173" d="M143.713,746.37a2.136,2.136,0,0,1-.692-1.043.911.911,0,0,1,.483-1.061,1.338,1.338,0,0,1,1.275.455,1.693,1.693,0,0,0,1.243.6,1.9,1.9,0,0,1-.587-1.767.724.724,0,0,1,.164-.36c.246-.264.692-.15.988.059a3.684,3.684,0,0,1,1.2,3.074,5.878,5.878,0,0,0,0-1.266,1.3,1.3,0,0,1,.478-1.12,1.408,1.408,0,0,1,.724-.173,1.507,1.507,0,0,1,1.179.337,1.166,1.166,0,0,1-.05,1.444,4.622,4.622,0,0,1-1.216.975,2.733,2.733,0,0,0-.87.833.611.611,0,0,0-.064.146H145.33A7.427,7.427,0,0,1,143.713,746.37Z" transform="translate(-93.146 -418.522)" fill="#2bedbf"/>
    <path id="Caminho_174" data-name="Caminho 174" d="M46.032,706.25s-.988,1.293.455,3.247,2.637,3.6,2.154,4.818c0,0-2.181-3.643-3.957-3.675S44.078,708.413,46.032,706.25Z" transform="translate(-39.132 -398.485)" fill="#2bedbf"/>
    <path id="Caminho_175" data-name="Caminho 175" d="M46.036,706.25a1.631,1.631,0,0,0-.2.405c-1.73,2.036-2.655,3.935-.988,3.985,1.548.046,3.411,2.814,3.853,3.516a1.624,1.624,0,0,1-.05.159s-2.181-3.643-3.957-3.675S44.082,708.413,46.036,706.25Z" transform="translate(-39.136 -398.485)" opacity="0.1"/>
    <path id="Caminho_176" data-name="Caminho 176" d="M44.66,709.521c0,.455.05.824.114.824s.114-.369.114-.824-.064-.241-.128-.241S44.66,709.066,44.66,709.521Z" transform="translate(-39.596 -400.108)" fill="#ffd037"/>
    <path id="Caminho_177" data-name="Caminho 177" d="M42.978,710.7c.4.219.747.346.779.292s-.269-.273-.669-.492-.241-.059-.273,0S42.577,710.478,42.978,710.7Z" transform="translate(-38.547 -400.737)" fill="#ffd037"/>
    <path id="Caminho_178" data-name="Caminho 178" d="M56.909,706.25s.993,1.293-.455,3.247-2.637,3.6-2.154,4.818c0,0,2.181-3.643,3.957-3.675S58.862,708.413,56.909,706.25Z" transform="translate(-44.786 -398.485)" fill="#2bedbf"/>
    <path id="Caminho_179" data-name="Caminho 179" d="M56.974,706.25a1.727,1.727,0,0,1,.2.405c1.73,2.036,2.655,3.935.988,3.985-1.548.046-3.411,2.814-3.857,3.516a.94.94,0,0,0,.055.159s2.181-3.643,3.957-3.675S58.928,708.413,56.974,706.25Z" transform="translate(-44.851 -398.485)" opacity="0.1"/>
    <path id="Caminho_180" data-name="Caminho 180" d="M63.928,709.521c0,.455-.05.824-.114.824s-.114-.369-.114-.824.064-.241.128-.241S63.928,709.066,63.928,709.521Z" transform="translate(-49.965 -400.108)" fill="#ffd037"/>
    <path id="Caminho_181" data-name="Caminho 181" d="M64.657,710.7c-.4.219-.751.346-.779.292s.269-.273.669-.492.241-.059.269,0S65.053,710.478,64.657,710.7Z" transform="translate(-50.061 -400.737)" fill="#ffd037"/>
    <path id="Caminho_182" data-name="Caminho 182" d="M51.2,721.8s-2.764-.086-3.6-.678-4.253-1.3-4.463-.351-4.153,4.736-1.034,4.759,7.254-.487,8.088-.993S51.2,721.8,51.2,721.8Z" transform="translate(-37.556 -406.141)" fill="#a8a8a8"/>
    <path id="Caminho_183" data-name="Caminho 183" d="M42.058,726.982c3.124.027,7.254-.483,8.088-.993.633-.383.883-1.767.97-2.409h.091s-.173,2.231-1.006,2.732-4.964,1.02-8.088.993c-.911,0-1.211-.328-1.193-.8C41.042,726.8,41.411,726.959,42.058,726.982Z" transform="translate(-37.558 -407.923)" opacity="0.2"/>
    <circle id="Elipse_34" data-name="Elipse 34" cx="9.85" cy="9.85" r="9.85" transform="translate(5.606 47.854)" fill="#2bedbf" opacity="0.1"/>
    <circle id="Elipse_35" data-name="Elipse 35" cx="9.85" cy="9.85" r="9.85" transform="translate(479.256 126.569)" fill="#2bedbf" opacity="0.1"/>
    <circle id="Elipse_36" data-name="Elipse 36" cx="9.85" cy="9.85" r="9.85" transform="translate(302.19 16.573)" fill="#2bedbf" opacity="0.1"/>
    <circle id="Elipse_37" data-name="Elipse 37" cx="16.508" cy="16.508" r="16.508" transform="translate(18.648 95.538)" fill="#2bedbf" opacity="0.1"/>
    <path id="Caminho_184" data-name="Caminho 184" d="M462.807,610.926l-.583-.583a.624.624,0,0,1,0-.911l5.114-5.119a.624.624,0,0,1,.911,0l5.114,5.114a.633.633,0,0,1,0,.911l-.583.583a.633.633,0,0,1-.911,0l-3.024-3.188V615.3a.628.628,0,0,1-.628.633h-.842a.633.633,0,0,1-.633-.633v-7.555l-3.024,3.188a.633.633,0,0,1-.911,0Z" transform="translate(-266.897 -342.862)" fill="#f6f7f9"/>
    <path id="Caminho_185" data-name="Caminho 185" d="M460.625,592.706a10.378,10.378,0,1,1-10.378,10.378,10.379,10.379,0,0,1,10.378-10.378m0-1.366a11.745,11.745,0,1,0,11.745,11.745,11.745,11.745,0,0,0-11.745-11.745Z" transform="translate(-259.737 -335.904)" fill="#f6f7f9"/>
  </g>
</svg>
