<svg xmlns="http://www.w3.org/2000/svg" width="44.003" height="63.01" viewBox="0 0 44.003 63.01">
  <g id="ddos" transform="translate(-9.999 -0.495)">
    <path id="Caminho_310" data-name="Caminho 310" d="M24,10.494a1,1,0,0,0-1-1H20a1,1,0,0,0,0,2h0v1.8l-.556.37a1,1,0,0,0,1.11,1.664l3-2a.987.987,0,0,0,.428-.9c0-.031.018-.058.018-.089V10.494Z" fill="#ed5565"/>
    <path id="Caminho_311" data-name="Caminho 311" d="M15,10.494a1,1,0,0,0-1-1H11a1,1,0,0,0-1,1v1.844c0,.031.015.058.018.089a.986.986,0,0,0,.428.9l3,2a1,1,0,1,0,1.11-1.664L14,13.293v-1.8a1,1,0,0,0,1-1Z" fill="#ed5565"/>
    <path id="Caminho_312" data-name="Caminho 312" d="M41,1.5a1,1,0,0,0-1-1H36a1,1,0,1,0,0,2V8.25l-.593.445a1,1,0,0,0,1.2,1.6l3.992-3c.02-.015.028-.036.046-.052a1,1,0,0,0,.137-.154.969.969,0,0,0,.1-.15,1.029,1.029,0,0,0,.062-.177.966.966,0,0,0,.04-.2c0-.023.012-.043.012-.068Z" fill="#ed5565"/>
    <path id="Caminho_313" data-name="Caminho 313" d="M28,2.495a1,1,0,0,0,0-2H24a1,1,0,0,0-1,1v5c0,.024.012.045.014.068a.966.966,0,0,0,.04.2,1.026,1.026,0,0,0,.061.177.844.844,0,0,0,.1.15,1.012,1.012,0,0,0,.138.154c.018.016.026.037.046.052l3.992,3a1,1,0,1,0,1.2-1.6L28,8.249Z" fill="#ed5565"/>
    <path id="Caminho_314" data-name="Caminho 314" d="M54,10.494a1,1,0,0,0-1-1H50a1,1,0,0,0,0,2v1.8l-.554.369a1,1,0,0,0,1.11,1.664l3-2a.987.987,0,0,0,.428-.9c0-.031.018-.058.018-.089V10.494Z" fill="#ed5565"/>
    <path id="Caminho_315" data-name="Caminho 315" d="M44,11.494a1,1,0,0,0,0-2H41a1,1,0,0,0-1,1v1.844c0,.031.015.058.018.089a.986.986,0,0,0,.428.9l3,2a1,1,0,1,0,1.11-1.664L44,13.292Z" fill="#ed5565"/>
    <path id="Caminho_316" data-name="Caminho 316" d="M50,9.495H44a1,1,0,0,0-1,1v10a1,1,0,0,0,1,1h6a1,1,0,0,0,1-1v-10a1,1,0,0,0-1-1Z" fill="#e6e9ed"/>
    <path id="Caminho_317" data-name="Caminho 317" d="M20,9.495H14a1,1,0,0,0-1,1v10a1,1,0,0,0,1,1h6a1,1,0,0,0,1-1v-10a1,1,0,0,0-1-1Z" fill="#e6e9ed"/>
    <path id="Caminho_318" data-name="Caminho 318" d="M36,.5H28a1,1,0,0,0-1,1v18.01a1,1,0,0,0,1,1h8a1.008,1.008,0,0,0,1-1.01V1.5a1,1,0,0,0-1-1Z" fill="#e6e9ed"/>
    <path id="Caminho_319" data-name="Caminho 319" d="M49,29.5v8a2.005,2.005,0,0,1-2,2H17a2.005,2.005,0,0,1-2-2v-8a2.006,2.006,0,0,1,2-2H47a2.006,2.006,0,0,1,2,2Zm-26,4a2,2,0,1,0-2.01,2A2,2,0,0,0,23,33.5Z" fill="#656d78"/>
    <path id="Caminho_320" data-name="Caminho 320" d="M21.01,31.5A2,2,0,1,1,19,33.495,2,2,0,0,1,21.01,31.5Z" fill="#ffce54"/>
    <path id="Caminho_321" data-name="Caminho 321" d="M21.01,43.505A2,2,0,1,1,19,45.5,2,2,0,0,1,21.01,43.505Z" fill="#ffce54"/>
    <path id="Caminho_322" data-name="Caminho 322" d="M49,41.505v8a2.005,2.005,0,0,1-2,2H17a2.005,2.005,0,0,1-2-2v-8a2.006,2.006,0,0,1,2-2H47A2.006,2.006,0,0,1,49,41.505Zm-26,4a2,2,0,1,0-2.01,2A2,2,0,0,0,23,45.505Z" fill="#545c66"/>
    <path id="Caminho_323" data-name="Caminho 323" d="M21.01,55.505A2,2,0,1,1,19,57.5,2,2,0,0,1,21.01,55.505Z" fill="#ffce54"/>
    <path id="Caminho_324" data-name="Caminho 324" d="M49,53.505v8a2.005,2.005,0,0,1-2,2H17a2.005,2.005,0,0,1-2-2v-8a2.006,2.006,0,0,1,2-2H47A2.006,2.006,0,0,1,49,53.505Zm-26,4a2,2,0,1,0-2.01,2A2,2,0,0,0,23,57.505Z" fill="#656d78"/>
    <path id="Caminho_325" data-name="Caminho 325" d="M36,35.489a1,1,0,0,1-.891-1.45l1.008-2a1,1,0,0,1,1.785.9l-1.008,2a1,1,0,0,1-.894.549Z" fill="#545c66"/>
    <path id="Caminho_326" data-name="Caminho 326" d="M40,35.5a1,1,0,0,1-.891-1.451l1.008-2a1,1,0,0,1,1.785.9l-1.008,2A1,1,0,0,1,40,35.5Z" fill="#545c66"/>
    <path id="Caminho_327" data-name="Caminho 327" d="M44,35.518a1,1,0,0,1-.891-1.45l1.008-2a1,1,0,0,1,1.785.9l-1.008,2a1,1,0,0,1-.894.549Z" fill="#545c66"/>
    <path id="Caminho_328" data-name="Caminho 328" d="M36,47.489a1,1,0,0,1-.891-1.45l1.008-2a1,1,0,1,1,1.785.9l-1.008,2a1,1,0,0,1-.894.549Z" fill="#434a54"/>
    <path id="Caminho_329" data-name="Caminho 329" d="M40,47.5a1,1,0,0,1-.891-1.451l1.008-2a1,1,0,0,1,1.785.9l-1.008,2A1,1,0,0,1,40,47.5Z" fill="#434a54"/>
    <path id="Caminho_330" data-name="Caminho 330" d="M44,47.518a1,1,0,0,1-.891-1.45l1.008-2a1,1,0,1,1,1.785.9l-1.008,2a1,1,0,0,1-.894.549Z" fill="#434a54"/>
    <path id="Caminho_331" data-name="Caminho 331" d="M36,59.489a1,1,0,0,1-.891-1.45l1.008-2a1,1,0,1,1,1.785.9l-1.008,2a1,1,0,0,1-.894.549Z" fill="#545c66"/>
    <path id="Caminho_332" data-name="Caminho 332" d="M40,59.5a1,1,0,0,1-.891-1.451l1.008-2a1,1,0,0,1,1.785.9l-1.008,2A1,1,0,0,1,40,59.5Z" fill="#545c66"/>
    <path id="Caminho_333" data-name="Caminho 333" d="M44,59.518a1,1,0,0,1-.891-1.45l1.008-2a1,1,0,0,1,1.785.9l-1.008,2a1,1,0,0,1-.894.549Z" fill="#545c66"/>
    <g id="Grupo_137" data-name="Grupo 137">
      <path id="Caminho_334" data-name="Caminho 334" d="M32,10.495a1,1,0,0,1-1-1v-8a1,1,0,1,1,2,0v8A1,1,0,0,1,32,10.495Z" fill="#ed5565"/>
      <path id="Caminho_335" data-name="Caminho 335" d="M47,15.494a1,1,0,0,1-1-1v-4a1,1,0,1,1,2,0v4A1,1,0,0,1,47,15.494Z" fill="#ed5565"/>
      <path id="Caminho_336" data-name="Caminho 336" d="M17,15.494a1,1,0,0,1-1-1v-4a1,1,0,1,1,2,0v4A1,1,0,0,1,17,15.494Z" fill="#ed5565"/>
      <path id="Caminho_337" data-name="Caminho 337" d="M51,20.49v0H43v0a4,4,0,1,0,8,0v0S51,20.492,51,20.49Z" fill="#ed5565"/>
      <path id="Caminho_338" data-name="Caminho 338" d="M35,19.5h-8a5,5,0,0,0,10,0Z" fill="#ed5565"/>
      <path id="Caminho_339" data-name="Caminho 339" d="M14,20.5h6a3,3,0,0,1-6,0Z" fill="#ed5565"/>
      <path id="Caminho_340" data-name="Caminho 340" d="M19,20.49s0,.006,0,.009a2,2,0,0,1-4,0s0-.006,0-.009H13s0,.006,0,.009a4,4,0,0,0,8,0s0-.006,0-.009Z" fill="#ed5565"/>
    </g>
  </g>
</svg>
