<svg xmlns="http://www.w3.org/2000/svg" width="66.097" height="48.387" viewBox="0 0 66.097 48.387">
  <g id="delivery" transform="translate(0 -68.597)">
    <path id="Caminho_299" data-name="Caminho 299" d="M344.357,164.8H330.709v24.736H353.07V178.4l-2.608-9.013a6.356,6.356,0,0,0-6.105-4.589" transform="translate(-288.019 -83.785)" fill="#ff7058"/>
    <path id="Caminho_300" data-name="Caminho 300" d="M370.763,199.246l-2.324-8.034a3.27,3.27,0,0,0-3.124-2.348H354.773v10.382Z" transform="translate(-308.977 -104.742)" fill="#84dbff"/>
    <path id="Caminho_301" data-name="Caminho 301" d="M370.729,199.214h-16V188.832Z" transform="translate(-308.94 -104.714)" fill="#cdd6e0"/>
    <path id="Caminho_302" data-name="Caminho 302" d="M370.763,199.246l-2.324-8.034a3.27,3.27,0,0,0-3.124-2.348H354.773Z" transform="translate(-308.977 -104.742)" fill="#f2f2f2"/>
    <path id="Caminho_303" data-name="Caminho 303" d="M4.131,68.6H38.559a4.131,4.131,0,0,1,4.131,4.131V105.75H0V72.728A4.13,4.13,0,0,1,4.131,68.6" fill="#ffd15c"/>
    <path id="Caminho_304" data-name="Caminho 304" d="M127.175,68.651V79.566l-1.6-1.6L123.9,79.643l-1.673-1.674-1.673,1.674-1.676-1.674-1.695,1.674-1.672-1.674L113.9,79.585V68.651Z" transform="translate(-99.196 -0.047)" fill="#f2f2f2"/>
    <path id="Caminho_305" data-name="Caminho 305" d="M66.135,323.7v4.668H.043V323.7h6.9a9.464,9.464,0,0,1,16.523,0h22.2a9.451,9.451,0,0,1,16.508,0Z" transform="translate(-0.037 -217.956)" fill="#334a5e"/>
    <path id="Caminho_306" data-name="Caminho 306" d="M379.42,347.834a6.6,6.6,0,1,1-6.6-6.6,6.6,6.6,0,0,1,6.6,6.6" transform="translate(-318.954 -237.446)" fill="#40596b"/>
    <path id="Caminho_307" data-name="Caminho 307" d="M402.09,374.467a2.651,2.651,0,1,1-2.649-2.649,2.649,2.649,0,0,1,2.649,2.649" transform="translate(-345.569 -264.08)" fill="#acb3ba"/>
    <path id="Caminho_308" data-name="Caminho 308" d="M79.53,347.834a6.6,6.6,0,1,1-6.6-6.6,6.6,6.6,0,0,1,6.6,6.6" transform="translate(-57.773 -237.446)" fill="#40596b"/>
    <path id="Caminho_309" data-name="Caminho 309" d="M102.207,374.467a2.65,2.65,0,1,1-2.649-2.649,2.648,2.648,0,0,1,2.649,2.649" transform="translate(-84.398 -264.08)" fill="#acb3ba"/>
  </g>
</svg>
