<svg xmlns="http://www.w3.org/2000/svg" xmlns:xlink="http://www.w3.org/1999/xlink" width="44.042" height="61.17" viewBox="0 0 44.042 61.17">
  <defs>
    <linearGradient id="linear-gradient" x1="-0.619" y1="0.808" x2="1.622" y2="0.191" gradientUnits="objectBoundingBox">
      <stop offset="0" stop-color="#1de9b6"/>
      <stop offset="1" stop-color="#6effe8"/>
    </linearGradient>
    <linearGradient id="linear-gradient-2" x1="0.001" y1="0.5" x2="1" y2="0.5" xlink:href="#linear-gradient"/>
    <linearGradient id="linear-gradient-3" x1="0.143" y1="0.857" x2="0.852" y2="0.148" xlink:href="#linear-gradient"/>
    <linearGradient id="linear-gradient-4" x1="0.143" y1="0.854" x2="0.852" y2="0.145" xlink:href="#linear-gradient"/>
    <linearGradient id="linear-gradient-5" x1="0.143" y1="0.857" x2="0.852" y2="0.148" xlink:href="#linear-gradient"/>
    <linearGradient id="linear-gradient-6" x1="0.266" y1="1.279" x2="0.85" y2="-0.347" xlink:href="#linear-gradient"/>
    <linearGradient id="linear-gradient-7" x1="0.262" y1="1.676" x2="0.745" y2="-0.375" xlink:href="#linear-gradient"/>
  </defs>
  <g id="Layer_3" transform="translate(-3.2 3)">
    <g id="Grupo_107" data-name="Grupo 107" transform="translate(3.2 -3)">
      <path id="Caminho_57" data-name="Caminho 57" d="M203.233-.751h-.448a.082.082,0,0,1-.085-.075v-2.1A.076.076,0,0,1,202.785-3h.448a.082.082,0,0,1,.085.075v2.1A.09.09,0,0,1,203.233-.751Z" transform="translate(-181.436 3)" fill="url(#linear-gradient)"/>
      <g id="Grupo_106" data-name="Grupo 106" transform="translate(4.956 1.029)">
        <path id="Caminho_58" data-name="Caminho 58" d="M81.676,13.321h-.2a1.715,1.715,0,0,0-1.716,1.716v4.018a1.715,1.715,0,0,1-1.716,1.716H74.716A1.715,1.715,0,0,1,73,19.055V15.037a1.715,1.715,0,0,0-1.716-1.716h-.2a1.715,1.715,0,0,0-1.716,1.716v4.125a1.715,1.715,0,0,1-1.716,1.716h-.981V10.592c.032,0,.053-.011.085-.011.384-.1.661-.405,1.077-.32s.767.288,1.162.373c1.471.33,1.4-.437,2.6-.032a2.145,2.145,0,0,0,1.524,0,.726.726,0,0,0,.2-.2V6.947a.172.172,0,0,0-.064-.139.238.238,0,0,0-.139-.064,3.638,3.638,0,0,1-1.258.309c-1.268.1-1.663-.533-2.867-.373a8.377,8.377,0,0,1-1.439.3A3.682,3.682,0,0,1,66.2,6.745a.2.2,0,0,0-.192.139H66V20.867h-.6a1.715,1.715,0,0,1-1.716-1.716V15.037a1.715,1.715,0,0,0-1.716-1.716h-.16a1.715,1.715,0,0,0-1.716,1.716v4.018a1.715,1.715,0,0,1-1.716,1.716H55.051a1.715,1.715,0,0,1-1.716-1.716V15.037a1.715,1.715,0,0,0-1.716-1.716h-.2A1.715,1.715,0,0,0,49.7,15.037v10.52a1.715,1.715,0,0,0,1.716,1.716,1.718,1.718,0,0,1,1.215.5l2.292,2.26a1.731,1.731,0,0,1,.5,1.407L52.066,61.285a1.717,1.717,0,0,0,1.705,1.908H79.352a1.717,1.717,0,0,0,1.705-1.908L77.743,31.441a1.735,1.735,0,0,1,.49-1.407L80.4,27.87a1.718,1.718,0,0,1,1.215-.5h.053a1.715,1.715,0,0,0,1.716-1.716V15.037A1.713,1.713,0,0,0,81.676,13.321Zm-7.61,32.466a1.248,1.248,0,0,1-.9.373h-13.7A1.26,1.26,0,0,1,58.216,44.9a1.238,1.238,0,0,1,1.258-1.258H73.181a1.251,1.251,0,0,1,.885,2.142Zm0-5.244a1.248,1.248,0,0,1-.9.373h-13.7a1.26,1.26,0,0,1-1.258-1.258A1.238,1.238,0,0,1,59.474,38.4H73.181a1.251,1.251,0,0,1,.885,2.142Zm0-5.233a1.248,1.248,0,0,1-.9.373h-13.7a1.26,1.26,0,0,1-1.258-1.258,1.238,1.238,0,0,1,1.258-1.258H73.181a1.251,1.251,0,0,1,.885,2.142Z" transform="translate(-49.7 -6.654)" fill="url(#linear-gradient-2)"/>
        <path id="Caminho_59" data-name="Caminho 59" d="M257.731,259.3a.831.831,0,1,0,.831.831A.832.832,0,0,0,257.731,259.3Z" transform="translate(-234.815 -232.371)" fill="url(#linear-gradient-3)"/>
        <path id="Caminho_60" data-name="Caminho 60" d="M257.731,308.5a.831.831,0,1,0,.831.831A.832.832,0,0,0,257.731,308.5Z" transform="translate(-234.815 -276.327)" fill="url(#linear-gradient-4)"/>
        <path id="Caminho_61" data-name="Caminho 61" d="M257.731,357.6a.831.831,0,1,0,.831.831A.832.832,0,0,0,257.731,357.6Z" transform="translate(-234.815 -320.194)" fill="url(#linear-gradient-5)"/>
      </g>
      <path id="Caminho_62" data-name="Caminho 62" d="M214.684,470.9h-10.3a1.074,1.074,0,0,0-1.077,1.077,1.074,1.074,0,0,1-1.077,1.077h-5.809a1.074,1.074,0,0,0-1.077,1.077,1.074,1.074,0,0,1-1.077,1.077H191.8a18.554,18.554,0,0,0,4.317,4.3H213.16a1.077,1.077,0,1,0,0-2.153h-3.869a1.077,1.077,0,0,1,0-2.153h1.716a1.074,1.074,0,0,0,1.077-1.076,1.074,1.074,0,0,1,1.077-1.077h1.5a1.074,1.074,0,0,0,1.077-1.077A1.04,1.04,0,0,0,214.684,470.9Z" transform="translate(-171.698 -420.388)" fill="url(#linear-gradient-6)"/>
      <path id="Caminho_63" data-name="Caminho 63" d="M26.244,506.713a1.377,1.377,0,0,1,1.492-1.2h.352a1.363,1.363,0,0,0,1.492-1.2,1.377,1.377,0,0,0-1.492-1.2H8.028a1.363,1.363,0,0,0-1.492,1.2,1.377,1.377,0,0,1-1.492,1.2H4.692a1.363,1.363,0,0,0-1.492,1.2,1.377,1.377,0,0,0,1.492,1.2h4.69a1.363,1.363,0,0,1,1.492,1.2,1.377,1.377,0,0,0,1.492,1.2h20.07a1.363,1.363,0,0,0,1.492-1.2,1.377,1.377,0,0,0-1.492-1.2h-4.69A1.373,1.373,0,0,1,26.244,506.713Z" transform="translate(-3.2 -449.156)" fill="url(#linear-gradient-7)"/>
    </g>
  </g>
</svg>
