<svg xmlns="http://www.w3.org/2000/svg" xmlns:xlink="http://www.w3.org/1999/xlink" width="530.565" height="402.328" viewBox="0 0 530.565 402.328">
  <defs>
    <linearGradient id="linear-gradient" x1="0.5" y1="1" x2="0.5" gradientUnits="objectBoundingBox">
      <stop offset="0" stop-color="gray" stop-opacity="0.251"/>
      <stop offset="0.54" stop-color="gray" stop-opacity="0.122"/>
      <stop offset="1" stop-color="gray" stop-opacity="0.102"/>
    </linearGradient>
    <linearGradient id="linear-gradient-2" x1="0.5" y1="1.009" x2="0.5" y2="-0.002" xlink:href="#linear-gradient"/>
  </defs>
  <g id="performance" transform="translate(0 -0.003)">
    <path id="Caminho_199" data-name="Caminho 199" d="M162.215,47s-1.844,7.193,11.042,27.526,11.99,23.213,11.247,29.027-.7,9-8.186,16.137c0,0-22.431,7.364-25.428,11.956s4.954,21.286,4.954,21.286,7.638,20.279-19.79,28.059c0,0-21.462.029-27.414,4.758,0,0,2.3-8.23-4.856-20.333s2.7-23.9,2.7-23.9,7.941-4.372,12.983-4.709,6.641-2.646,3.4-8.44c0,0-4.69-2.445-11.184,2.792s-11.345,8.968-17,8.528-13.726-2.826-19.022-13.3-8.083-25.272-12.049-32.03S57.5,86.12,57.5,86.12s5.012,3.8,22.318-9.11,26.338-7.389,26.338-7.389,13.907,3.736,16.137,28.26c0,0,4.044,23.369,12.264,9.213,0,0-2.782-7.971-8.342-19.707s9.32-22.783,20.215-26.48S162.215,47,162.215,47Z" transform="translate(-57.5 -42.901)" fill="#2bedbf"/>
    <path id="Caminho_200" data-name="Caminho 200" d="M88.439,137.3l-.049-.122c3.423-1.428,19.213,7.125,31.839,14.553l-.068.112C102.351,141.366,91.084,136.2,88.439,137.3Z" transform="translate(-73.285 -88.899)" fill="#444053"/>
    <path id="Caminho_201" data-name="Caminho 201" d="M152.83,166.923l.137-.073c10.083,5.941,22.181,13.482,31.242,19.6.861.582,1.756,1.159,2.67,1.7l-.142.23c-.914-.548-1.814-1.125-2.68-1.712C175.006,180.557,162.908,172.86,152.83,166.923Z" transform="translate(-106.213 -104.144)" fill="#444053"/>
    <path id="Caminho_202" data-name="Caminho 202" d="M221.63,210.406l.225-.176c18.176,10.91,43.746,8.313,43.971,8.313l-2.822,3.2C262.78,221.761,239.933,221.389,221.63,210.406Z" transform="translate(-141.37 -126.311)" fill="#444053"/>
    <path id="Caminho_203" data-name="Caminho 203" d="M216,80.61s-5.951,16.572-1.428,28.25-4.89,40.612-4.89,40.612-3.125,12.171-8.152,15.213c0,0-7.291,9.051-11.565,10.088s-14.1,10.22-13.844,15.3" transform="translate(-118.114 -60.075)" fill="none" stroke="#444053" stroke-miterlimit="10" stroke-width="1"/>
    <path id="Caminho_204" data-name="Caminho 204" d="M263.23,83s-4.2,8.509-10.44,8.435" transform="translate(-157.292 -61.296)" fill="none" stroke="#444053" stroke-miterlimit="10" stroke-width="1"/>
    <path id="Caminho_205" data-name="Caminho 205" d="M272.259,105.62s-2.538,11.7-18.259,14.973" transform="translate(-157.911 -72.855)" fill="none" stroke="#444053" stroke-miterlimit="10" stroke-width="1"/>
    <path id="Caminho_206" data-name="Caminho 206" d="M280.34,141.28A25.2,25.2,0,0,1,257,151.691" transform="translate(-159.444 -91.077)" fill="none" stroke="#444053" stroke-miterlimit="10" stroke-width="1"/>
    <path id="Caminho_207" data-name="Caminho 207" d="M276.35,186.69s-13.922,9.12-24.45,4.113" transform="translate(-156.838 -114.282)" fill="none" stroke="#444053" stroke-miterlimit="10" stroke-width="1"/>
    <path id="Caminho_208" data-name="Caminho 208" d="M237.56,83s3.638,7.7,7.663,5.379" transform="translate(-149.51 -61.296)" fill="none" stroke="#444053" stroke-miterlimit="10" stroke-width="1"/>
    <path id="Caminho_209" data-name="Caminho 209" d="M210.32,106.91s4.89,10.328,20.191,8.514" transform="translate(-135.59 -73.514)" fill="none" stroke="#444053" stroke-miterlimit="10" stroke-width="1"/>
    <path id="Caminho_210" data-name="Caminho 210" d="M207.3,138.67s13.457,8.176,24.372,5.961" transform="translate(-134.047 -89.744)" fill="none" stroke="#444053" stroke-miterlimit="10" stroke-width="1"/>
    <path id="Caminho_211" data-name="Caminho 211" d="M221.79,172.52s10.65,8.494,15.648,6.543" transform="translate(-141.452 -107.041)" fill="none" stroke="#444053" stroke-miterlimit="10" stroke-width="1"/>
    <path id="Caminho_212" data-name="Caminho 212" d="M216.69,185.47s2.88,8.924.049,10.611" transform="translate(-138.845 -113.658)" fill="none" stroke="#444053" stroke-miterlimit="10" stroke-width="1"/>
    <path id="Caminho_213" data-name="Caminho 213" d="M197.4,206.095s5.492-5.452,3.961-6.455" transform="translate(-128.988 -120.899)" fill="none" stroke="#444053" stroke-miterlimit="10" stroke-width="1"/>
    <path id="Caminho_214" data-name="Caminho 214" d="M175.268,120.22s4.807,22.832-1.438,28.993" transform="translate(-116.944 -80.316)" fill="none" stroke="#444053" stroke-miterlimit="10" stroke-width="1"/>
    <path id="Caminho_215" data-name="Caminho 215" d="M135.67,208.085s21.756-13.971,23.653-22.225" transform="translate(-97.445 -113.858)" fill="none" stroke="#444053" stroke-miterlimit="10" stroke-width="1"/>
    <path id="Caminho_216" data-name="Caminho 216" d="M109.9,191.65s20.465-9.54,26.015-18.68" transform="translate(-84.276 -107.271)" fill="none" stroke="#444053" stroke-miterlimit="10" stroke-width="1"/>
    <path id="Caminho_217" data-name="Caminho 217" d="M138,105.26s9.9,16.519,3.716,28.079" transform="translate(-98.635 -72.671)" fill="none" stroke="#444053" stroke-miterlimit="10" stroke-width="0.75"/>
    <path id="Caminho_218" data-name="Caminho 218" d="M96.25,167.9s15.159-6.137,18.225-12.049" transform="translate(-77.301 -98.523)" fill="none" stroke="#444053" stroke-miterlimit="10" stroke-width="0.75"/>
    <path id="Caminho_219" data-name="Caminho 219" d="M102.79,115.56s5.071,9.35,2.709,13.413" transform="translate(-80.643 -77.935)" fill="none" stroke="#444053" stroke-miterlimit="10" stroke-width="0.75"/>
    <path id="Caminho_220" data-name="Caminho 220" d="M210.23,228.189s13.692-1.834,15.159,1.741" transform="translate(-135.544 -135.247)" fill="none" stroke="#444053" stroke-miterlimit="10" stroke-width="1"/>
    <path id="Caminho_221" data-name="Caminho 221" d="M245.291,264.363S244.553,249.39,236,243.6" transform="translate(-148.713 -143.362)" fill="none" stroke="#444053" stroke-miterlimit="10" stroke-width="1"/>
    <path id="Caminho_222" data-name="Caminho 222" d="M178.22,241s14.372,1.7,19.453,11.071" transform="translate(-119.187 -142.034)" fill="none" stroke="#444053" stroke-miterlimit="10" stroke-width="1"/>
    <path id="Caminho_223" data-name="Caminho 223" d="M218.859,288.7s2.22-10.968-8.279-18.724" transform="translate(-135.723 -156.843)" fill="none" stroke="#444053" stroke-miterlimit="10" stroke-width="1"/>
    <path id="Caminho_224" data-name="Caminho 224" d="M157.05,268.08s11.922-.611,18.308,5.056" transform="translate(-108.37 -155.862)" fill="none" stroke="#444053" stroke-miterlimit="10" stroke-width="1"/>
    <path id="Caminho_225" data-name="Caminho 225" d="M186.235,301.622s-1.115-8.7-4.225-10.352" transform="translate(-121.124 -167.722)" fill="none" stroke="#444053" stroke-miterlimit="10" stroke-width="1"/>
    <path id="Caminho_226" data-name="Caminho 226" d="M336.673,135.141c-26.832,13.5-56.177,19.389-84.788,23.927S194.393,167.1,166.2,176.589c-18.132,6.1-37.3,15.986-46.235,31.34-8.616,14.743-5.433,30.465-.875,44.167,3.423,10.3,7.824,20.729,17.193,27.027,6.514,4.372,14.968,6.421,22.069,10.142,24.7,12.934,28.7,43.272,24.724,71.179C181.2,373.535,178,386.8,178.041,399.629s3.746,25.546,13.927,33.125c10.093,7.511,25.247,9.037,40.1,7.824,30.176-2.445,60.519-14.959,89.419-28.406,63.991-29.766,125.288-65.253,186.443-100.652,22.621-13.1,45.345-26.264,66.172-41.781,11.565-8.616,22.983-18.514,28.323-30.357,6.8-15.032,1.614-31.409-12.1-38.172-22.983-11.345-61.409,3.614-81.228-11.2-10.949-8.157-12.377-23.081-10.592-37.091,3.824-30.1,19.629-63.282,7.565-88.754-8.284-17.5-30.084-27.678-53.888-25.159-24.939,2.641-52.578,19.037-60.011,41.14C384.532,102.906,360.366,123.195,336.673,135.141Z" transform="translate(-86.651 -38.62)" fill="#2bedbf" opacity="0.1"/>
    <ellipse id="Elipse_38" data-name="Elipse 38" cx="48.954" cy="12.093" rx="48.954" ry="12.093" transform="translate(265.397 360.197)" fill="#2bedbf" opacity="0.1"/>
    <rect id="Retângulo_78" data-name="Retângulo 78" width="464.715" height="263.246" rx="12.49" transform="translate(65.849 66.364)" fill="url(#linear-gradient)"/>
    <rect id="Retângulo_79" data-name="Retângulo 79" width="463.292" height="258.668" rx="12.49" transform="translate(66.588 70.066)" fill="#fff"/>
    <rect id="Retângulo_80" data-name="Retângulo 80" width="463.292" height="258.668" rx="12.49" transform="translate(66.588 70.066)" fill="#fff"/>
    <rect id="Retângulo_81" data-name="Retângulo 81" width="463.292" height="258.668" rx="12.49" transform="translate(66.588 70.066)" fill="#5a5773" opacity="0.04"/>
    <path id="Caminho_227" data-name="Caminho 227" d="M654.62,175.83H196.032a2.352,2.352,0,0,0-2.352,2.352v9.956H656.972v-9.956a2.352,2.352,0,0,0-2.352-2.352Z" transform="translate(-127.087 -108.732)" fill="#5a5773"/>
    <g id="buttons" transform="translate(72.661 70.066)">
      <circle id="Elipse_39" data-name="Elipse 39" cx="3.179" cy="3.179" r="3.179" fill="#fff"/>
      <circle id="Elipse_40" data-name="Elipse 40" cx="3.179" cy="3.179" r="3.179" transform="translate(8.558)" fill="#fff"/>
      <circle id="Elipse_41" data-name="Elipse 41" cx="3.179" cy="3.179" r="3.179" transform="translate(17.115)" fill="#fff"/>
    </g>
    <rect id="Retângulo_82" data-name="Retângulo 82" width="386.313" height="148.657" rx="10.19" transform="translate(97.6 136.663)" fill="#2bedbf" opacity="0.1"/>
    <rect id="Retângulo_83" data-name="Retângulo 83" width="386.313" height="148.657" rx="10.19" transform="matrix(1, 0.025, -0.025, 1, 107.019, 122.133)" fill="#fff"/>
    <line id="Linha_15" data-name="Linha 15" x2="269.109" y2="6.841" transform="translate(164.804 153.676)" fill="#f4f4f7" stroke="#5a5773" stroke-miterlimit="10" stroke-width="1" opacity="0.2"/>
    <line id="Linha_16" data-name="Linha 16" x2="269.109" y2="6.841" transform="translate(164.271 174.698)" fill="#f4f4f7" stroke="#5a5773" stroke-miterlimit="10" stroke-width="1" opacity="0.2"/>
    <line id="Linha_17" data-name="Linha 17" x2="269.109" y2="6.841" transform="translate(163.738 195.716)" fill="#f4f4f7" stroke="#5a5773" stroke-miterlimit="10" stroke-width="1" opacity="0.2"/>
    <line id="Linha_18" data-name="Linha 18" x2="269.114" y2="6.841" transform="translate(163.2 216.738)" fill="#f4f4f7" stroke="#5a5773" stroke-miterlimit="10" stroke-width="1" opacity="0.2"/>
    <line id="Linha_19" data-name="Linha 19" x1="0.68" y2="26.724" transform="translate(186.98 211.652)" fill="none" stroke="#5a5773" stroke-miterlimit="10" stroke-width="1" stroke-dasharray="12" opacity="0.2"/>
    <line id="Linha_20" data-name="Linha 20" x2="269.109" y2="6.836" transform="translate(162.667 237.76)" fill="#f4f4f7" stroke="#5a5773" stroke-miterlimit="10" stroke-width="1" opacity="0.2"/>
    <line id="Linha_21" data-name="Linha 21" y1="39.839" x2="1.012" transform="translate(217.416 199.31)" fill="none" stroke="#5a5773" stroke-miterlimit="10" stroke-width="1" stroke-dasharray="12" opacity="0.2"/>
    <path id="Caminho_228" data-name="Caminho 228" d="M648.317,404.445c-4.8.416-9.482-2.274-12.352-5.1a48.366,48.366,0,0,1-7.213-10.054c-.66-1.11-1.345-2.254-2.034-3.359-3.633-5.76-7.262-9.633-11.413-12.191a21.729,21.729,0,0,0-4.856-2.22,3.432,3.432,0,0,1-3.086,2.1H607.2a3.423,3.423,0,0,1-3.3-2.968,14.889,14.889,0,0,0-4.5.924c-4.269,1.609-7.511,5.066-10.46,8.474-3.57,4.117-7.012,8.435-10.22,12.841q-.978,1.335-1.956,2.685c-3.482,4.861-7.081,9.883-11.736,13.809-6.25,5.3-13.766,7.584-20.108,6.113-7.609-1.765-13.052-8.489-16.939-14.152-.489-.734-.978-1.467-1.506-2.215-3.628-5.379-7.379-10.939-12.914-14.181a21.861,21.861,0,0,0-23.961,1.746c-3.218,2.577-5.633,6.078-7.976,9.462-.8,1.164-1.633,2.367-2.489,3.521-4.4,5.912-8.836,9.12-13.619,9.814a25.892,25.892,0,0,1-5.707,0c-1.262-.088-2.567-.186-3.844-.152a18.479,18.479,0,0,0-15.438,9.619l-.675,28.147,211.4,5.379,1.183-46.568a2.934,2.934,0,0,1-4.117-1.467Z" transform="translate(-252.879 -208.285)" fill="#2bedbf" opacity="0.2"/>
    <line id="Linha_22" data-name="Linha 22" x1="1.677" y2="66.064" transform="translate(248.668 173.882)" fill="none" stroke="#5a5773" stroke-miterlimit="10" stroke-width="1" stroke-dasharray="12" opacity="0.2"/>
    <line id="Linha_23" data-name="Linha 23" x1="1.056" y2="41.551" transform="translate(278.771 199.158)" fill="none" stroke="#5a5773" stroke-miterlimit="10" stroke-width="1" stroke-dasharray="12" opacity="0.2"/>
    <line id="Linha_24" data-name="Linha 24" x1="0.949" y2="37.423" transform="translate(308.2 204.034)" fill="none" stroke="#5a5773" stroke-miterlimit="10" stroke-width="1" stroke-dasharray="12" opacity="0.2"/>
    <line id="Linha_25" data-name="Linha 25" x1="1.819" y2="71.615" transform="translate(335.784 170.542)" fill="none" stroke="#5a5773" stroke-miterlimit="10" stroke-width="1" stroke-dasharray="12" opacity="0.2"/>
    <line id="Linha_26" data-name="Linha 26" x1="1.902" y2="74.852" transform="translate(364.66 168.043)" fill="none" stroke="#5a5773" stroke-miterlimit="10" stroke-width="1" stroke-dasharray="12" opacity="0.2"/>
    <line id="Linha_27" data-name="Linha 27" x1="1.213" y2="47.541" transform="translate(397.423 196.185)" fill="none" stroke="#5a5773" stroke-miterlimit="10" stroke-width="1" stroke-dasharray="12" opacity="0.2"/>
    <path id="Caminho_229" data-name="Caminho 229" d="M782.054,364.683a3.432,3.432,0,0,0-5.765,1.946,3.319,3.319,0,0,0-.039.587,1.736,1.736,0,0,0,.029.391,3.423,3.423,0,0,0,1.022,2.01,3.36,3.36,0,0,0,2.279.978h.161a3.423,3.423,0,0,0,2.4-1.047,3.506,3.506,0,0,0,.689-1.046,3.382,3.382,0,0,0,.245-.954,2.729,2.729,0,0,0,0-.445,3.423,3.423,0,0,0-1.022-2.421Zm-.171,3.521a2.222,2.222,0,0,1-.445.641,2.445,2.445,0,0,1-4.161-1.262,2.031,2.031,0,0,1-.044-.386,2.345,2.345,0,0,1,.059-.587,2.445,2.445,0,0,1,2.337-1.907h.112a2.445,2.445,0,0,1,2.381,2.391v.152A2.274,2.274,0,0,1,781.883,368.2Z" transform="translate(-424.778 -204.748)" fill="#2bedbf"/>
    <circle id="Elipse_42" data-name="Elipse 42" cx="2.934" cy="2.934" r="2.934" transform="translate(395.731 192.61)" fill="#2bedbf"/>
    <path id="Caminho_230" data-name="Caminho 230" d="M604.94,370.219a2.03,2.03,0,0,0,.044.386c-.332,0-.665,0-.978.024a14.955,14.955,0,0,0-4.509.924c-4.269,1.609-7.511,5.066-10.465,8.474-3.57,4.113-7.012,8.435-10.225,12.836-.65.89-1.291,1.79-1.956,2.69-3.487,4.861-7.086,9.878-11.736,13.809-6.254,5.3-13.775,7.58-20.122,6.108-7.6-1.76-13.042-8.489-16.954-14.152-.489-.729-1.007-1.467-1.506-2.215-3.633-5.379-7.389-10.939-12.924-14.181a21.859,21.859,0,0,0-23.961,1.746c-3.174,2.572-5.619,6.073-7.961,9.457-.807,1.164-1.638,2.372-2.494,3.521-4.4,5.912-8.841,9.12-13.624,9.814a26.2,26.2,0,0,1-5.707,0,37.4,37.4,0,0,0-3.849-.152,18.445,18.445,0,0,0-16.034,10.817l-.9-.391a19.462,19.462,0,0,1,16.9-11.4,36.453,36.453,0,0,1,3.951.156,25.457,25.457,0,0,0,5.492,0c4.513-.65,8.758-3.736,12.978-9.428.846-1.139,1.672-2.337,2.474-3.5,2.381-3.423,4.846-7,8.171-9.668a22.548,22.548,0,0,1,25.066-1.824c5.731,3.359,9.55,9.012,13.247,14.484.489.734.978,1.467,1.5,2.205,3.79,5.516,9.071,12.064,16.362,13.751,6.044,1.4,13.247-.8,19.267-5.9,4.543-3.848,8.117-8.8,11.565-13.633q.961-1.35,1.956-2.694c3.232-4.4,6.69-8.763,10.269-12.9,3.037-3.5,6.357-7.056,10.861-8.743a16.017,16.017,0,0,1,4.861-.978c.328,0,.665-.029.978,0A2.35,2.35,0,0,0,604.94,370.219Z" transform="translate(-252.486 -207.77)" fill="#2bedbf"/>
    <path id="Caminho_231" data-name="Caminho 231" d="M829.476,404.432c-5.736,2.142-11.8-1.056-15.252-4.45-2.973-2.934-5.13-6.548-7.213-10.059-.66-1.105-1.345-2.254-2.039-3.355-3.633-5.765-7.262-9.638-11.418-12.2a21.81,21.81,0,0,0-4.856-2.215c-.313-.1-.631-.191-.978-.274a2.273,2.273,0,0,0,.24-.954c.323.083.641.176.978.274a22.656,22.656,0,0,1,5.12,2.337c4.293,2.636,8.02,6.606,11.736,12.5.7,1.115,1.384,2.264,2.054,3.384,2.054,3.452,4.176,7.027,7.056,9.853,3.242,3.188,8.919,6.215,14.225,4.235Z" transform="translate(-430.639 -208.428)" fill="#2bedbf"/>
    <rect id="Retângulo_84" data-name="Retângulo 84" width="9.976" height="4.401" rx="0.9" transform="matrix(1, 0.025, -0.025, 1, 164.909, 149.292)" fill="#2bedbf" opacity="0.5"/>
    <rect id="Retângulo_85" data-name="Retângulo 85" width="9.976" height="4.401" rx="0.9" transform="matrix(1, 0.025, -0.025, 1, 164.369, 170.309)" fill="#2bedbf"/>
    <rect id="Retângulo_86" data-name="Retângulo 86" width="9.976" height="4.401" rx="0.9" transform="matrix(1, 0.025, -0.025, 1, 163.833, 191.335)" fill="#2bedbf" opacity="0.5"/>
    <rect id="Retângulo_87" data-name="Retângulo 87" width="9.976" height="4.401" rx="0.9" transform="matrix(1, 0.025, -0.025, 1, 163.298, 212.352)" fill="#2bedbf" opacity="0.5"/>
    <rect id="Retângulo_88" data-name="Retângulo 88" width="9.976" height="4.401" rx="0.9" transform="matrix(1, 0.025, -0.025, 1, 162.763, 233.373)" fill="#2bedbf" opacity="0.5"/>
    <rect id="Retângulo_89" data-name="Retângulo 89" width="9.976" height="4.401" rx="0.9" transform="matrix(1, 0.025, -0.025, 1, 181.264, 242.649)" fill="#2bedbf" opacity="0.5"/>
    <rect id="Retângulo_90" data-name="Retângulo 90" width="9.976" height="4.401" rx="0.9" transform="matrix(1, 0.025, -0.025, 1, 212.305, 243.439)" fill="#2bedbf" opacity="0.5"/>
    <rect id="Retângulo_91" data-name="Retângulo 91" width="9.976" height="4.401" rx="0.9" transform="translate(242.449 245.547) rotate(1.718)" fill="#2bedbf"/>
    <rect id="Retângulo_92" data-name="Retângulo 92" width="9.976" height="4.401" rx="0.9" transform="matrix(1, 0.025, -0.025, 1, 273.66, 245.002)" fill="#2bedbf" opacity="0.5"/>
    <rect id="Retângulo_93" data-name="Retângulo 93" width="9.976" height="4.401" rx="0.9" transform="matrix(1, 0.025, -0.025, 1, 303.084, 245.757)" fill="#2bedbf" opacity="0.5"/>
    <rect id="Retângulo_94" data-name="Retângulo 94" width="9.976" height="4.401" rx="0.9" transform="matrix(1, 0.025, -0.025, 1, 330.667, 246.454)" fill="#2bedbf"/>
    <rect id="Retângulo_95" data-name="Retângulo 95" width="9.976" height="4.401" rx="0.9" transform="matrix(1, 0.025, -0.025, 1, 359.749, 247.195)" fill="#2bedbf"/>
    <rect id="Retângulo_96" data-name="Retângulo 96" width="9.976" height="4.401" rx="1.39" transform="translate(391.242 250.015) rotate(1.718)" fill="#2bedbf"/>
    <path id="Caminho_232" data-name="Caminho 232" d="M1032.519,643.323a4.841,4.841,0,1,1-3.423,1.418,4.841,4.841,0,0,1,3.423-1.418m0-.753a5.6,5.6,0,1,0,5.6,5.589A5.6,5.6,0,0,0,1032.519,642.57Z" transform="translate(-552.87 -347.235)" fill="#2bedbf"/>
    <path id="Caminho_233" data-name="Caminho 233" d="M1035.3,653.742l.293-.391a1.556,1.556,0,0,0,1.071.445c.489,0,.875-.25.875-.646s-.357-.714-1.345-.714v-.45c.88,0,1.213-.293,1.213-.675s-.3-.562-.734-.562a1.433,1.433,0,0,0-.924.377l-.313-.377a1.956,1.956,0,0,1,1.261-.489c.758,0,1.32.367,1.32,1.007,0,.45-.328.748-.807.91v.024a1.051,1.051,0,0,1,.939.978c0,.694-.655,1.115-1.438,1.115A1.893,1.893,0,0,1,1035.3,653.742Z" transform="translate(-557.152 -351.164)" fill="#2bedbf"/>
    <path id="Caminho_234" data-name="Caminho 234" d="M1079.809,643.993a4.841,4.841,0,1,1-3.423,1.418,4.841,4.841,0,0,1,3.423-1.418m0-.753a5.595,5.595,0,1,0,3.961,1.639,5.6,5.6,0,0,0-3.961-1.639Z" transform="translate(-577.035 -347.577)" fill="#5a5773"/>
    <path id="Caminho_235" data-name="Caminho 235" d="M1083.623,652.044a6.015,6.015,0,0,1,.034-.782h-.034c-.137.21-.293.42-.43.631l-.978,1.276h2.645v.513h-3.33v-.411l1.985-2.611h.729v4.156h-.607Z" transform="translate(-580.775 -351.369)" fill="#5a5773"/>
    <path id="Caminho_236" data-name="Caminho 236" d="M1059.4,648a.514.514,0,0,1,.719,0l2.523,2.533a.489.489,0,0,1,0,.7l-2.484,2.494a.51.51,0,1,1-.724-.719l2.132-2.152-2.166-2.142a.489.489,0,0,1,0-.724Z" transform="translate(-569.386 -349.932)" fill="#5a5773"/>
    <path id="Caminho_237" data-name="Caminho 237" d="M1050.77,648.262a5.5,5.5,0,1,0,5.491-5.491A5.5,5.5,0,0,0,1050.77,648.262Zm.846,0a4.66,4.66,0,1,1,1.364,3.286A4.606,4.606,0,0,1,1051.616,648.262Z" transform="translate(-565.057 -347.337)" fill="#5a5773"/>
    <rect id="Retângulo_97" data-name="Retângulo 97" width="111.121" height="11.663" rx="3.86" transform="translate(81.219 92.448)" fill="#5a5773" opacity="0.2"/>
    <path id="Caminho_238" data-name="Caminho 238" d="M626.8,534.2c-.812-2.934-1.34-5.526-1.34-5.526a11.509,11.509,0,0,0-1.506-5.6l-.029-.807h0l-.23-5.966a20.312,20.312,0,0,1,1.384-3.183c1.007-1.917-.332-8.743-.332-8.743s-4.357-9.531-3.624-15.712S611.9,461.7,611.9,461.7a26.66,26.66,0,0,1,.626-6.068,4.968,4.968,0,0,0,.068-1.271c0-.054,0-.1,0-.156v.049c-.289-4.044-3.785-11.516-3.785-11.516l-.127-14.489s1.716-8.616-2.064-19.942c-1.315-3.951-2.186-7.12-2.753-9.575-.064-.274-.127-.543-.181-.8,6.846-1.315,12.034-2.386,12.034-2.386s-4.621-16.5-7.423-19.316-5.306-11.888-5.306-11.888-1.853-11.712.274-15.237,2.225-9.467,2.225-9.467,5.017-3.951,5.6-5.638a27.665,27.665,0,0,0,1.438-7.462c-.073-1.98-.792-3.721-.616-4.773s-1.7-4.939-.91-6.846a5.166,5.166,0,0,0,.274-1.819v-.078a25.406,25.406,0,0,0-.641-4.866,13.82,13.82,0,0,0-5.213-2.538l-.132-.44L604.951,304c-.176-.108-.347-.2-.518-.284l-.029-.425-.112-1.687.66-3.814c1.33-6.675-7.526-7.335-7.526-7.335a4.622,4.622,0,0,0-2.587-2.093c-1.8-.557.088,9.956.944,10.6a40.417,40.417,0,0,1,3.692,5.32h0l.156.259a4.619,4.619,0,0,0-.386.44l.425,2.284.064.347a9.645,9.645,0,0,0-1.315,2.445,5.146,5.146,0,0,1,1.438,3.7,11.494,11.494,0,0,0,.709,4.558c-.1-.108-1.281-1.291-2.4-.949s-4.254,1.413-4.254,1.413-2.352.489-2.117,1.022-1.506,2.875-1.506,2.875l-6.592-5.785c-.068-.176-.142-.352-.205-.538a14.846,14.846,0,0,1-.655-2.616,14.965,14.965,0,0,0,2.01-.729,4.4,4.4,0,0,0,1.716-1.193,6.882,6.882,0,0,0,.919-2.782,41.183,41.183,0,0,1,2.157-5.35,17.151,17.151,0,0,0,.9-9.462,6.275,6.275,0,0,0-1.081-2.729c-1.1-1.389-3-1.9-4.4-2.983s-2.367-2.792-4-3.589a7.636,7.636,0,0,0-4.841-.225,25.964,25.964,0,0,0-8.919,3.614,4.627,4.627,0,0,1-2.973,1.105,4.031,4.031,0,0,1-2.235-1.511.122.122,0,0,1,.024-.088l-.073-.083a11.2,11.2,0,0,0-.8,4.8,5.017,5.017,0,0,0,.059.763.966.966,0,0,0,.024.264,1.635,1.635,0,0,1,0,.22h0a1.318,1.318,0,0,1-.034.337,2.474,2.474,0,0,1-.562.885,5.1,5.1,0,0,0-.489.724.834.834,0,0,1,.078-.259,3.756,3.756,0,0,0-.582,2.029,1.99,1.99,0,0,0,.533,1.413,6.924,6.924,0,0,0,1.071.8,11.8,11.8,0,0,0-.108,2.127,12.284,12.284,0,0,0,6.4,10.269l.235.538a15.272,15.272,0,0,1,1.423,6.89,3.039,3.039,0,0,1-.059.489c-.078.088-.152.181-.22.274h0s-10.5.489-13.056-1.638-6.029,5.707-6.029,5.707-3.736.875-4.513.176-5.169.093-5.169.093a9.511,9.511,0,0,0-6.655-2.142,19.38,19.38,0,0,0-4.914-2.494h0l-.117-.039h0a5.409,5.409,0,0,0-2.382-.21s-5.325-4.068-6.919-6.3-9.1-10.455-9.13-10.489l-.034-.416-.127-1.232a5,5,0,0,1-.641.078q-.064-.181-.161-.425a23.545,23.545,0,0,0-1.658-3.423s-.059-1.565.381-1.956-.425-6.113-.425-6.113-5.071-10.7-8.929-2.416c0,0-7.677,5.56-.826,11.423,0,0,2.689,1.174,3.1,2.171.269.65,1.237,2.445,1.888,3.648l.289.538-.073.064.137,1.017.054.4c-1.218.758-2.034,1.491-1.809,2.01a11.7,11.7,0,0,1,.861,2.782s9.584,11.105,10.958,15.951c0,0,25.086,13.633,33.194,14.367l-1.115,7.335a59.215,59.215,0,0,0-.1,5.946c.166,1.545-.636,8.68-.636,8.68s-.978,10.47-2.122,11.971-.675,7.741-.675,7.741A52.437,52.437,0,0,1,540.378,392a22.7,22.7,0,0,0,0,8.861s-3.726,9.531,5.814,2.8c0,0,4.8-.489,10.323-.885v.553c0,.714.029,1.467.054,2.3.132,5.379.386,12.768.841,18.352.812,9.873,4.577,29.34,4.577,29.34l.376,9.834a13.378,13.378,0,0,0-.171,2.822,18.269,18.269,0,0,0,3.027,9.741l1.007,6.533s1.956,4.249,2.064,6.846a3.586,3.586,0,0,1-.049.631,4.507,4.507,0,0,0-.049,1.007c0,2.983,2.083,10.039,2.083,10.039s.386,7.179,1.467,7.555c.934.323-1.071,4.186-1.667,5.3a1.045,1.045,0,0,0-.049-.205l-.122.22a5.049,5.049,0,0,0-.269,1.829,2.616,2.616,0,0,0,1.291,2.479c2.093,1.173,3.232,2.171,1.511,2.655a18.765,18.765,0,0,0-1.878.489l-.1-.235a1.144,1.144,0,0,0-.621,1.232,5.291,5.291,0,0,0,.734,2.411,25.927,25.927,0,0,0,3.12,5.2l.821-.127a4.109,4.109,0,0,1-.445.909,3.422,3.422,0,0,1-1.174,1.125,3.747,3.747,0,0,1-1.467.562,4.141,4.141,0,0,0-2.993,1.6c-1.017,1.428-1.619,3.345.567,4.924l7.795,2.357s13.3,1.213,12.479-1.731-1.34-5.526-1.34-5.526a11.8,11.8,0,0,0-1.276-5.222,5.974,5.974,0,0,0-.489-.758l.465-.073s.719-6.6,1.956-7.893c.284-.3.342-.523.269-.694.117-.362-.225-.558-.665-.66-.029.088-.059.171-.083.264a6.184,6.184,0,0,0-1.257-.088s-.562-3.423.787-4.724a1.305,1.305,0,0,0,.23-1.032,5.568,5.568,0,0,0-.2-1.394s-.029.054-.049.083a50.9,50.9,0,0,0-3.4-7.956s-.225-3.12.587-4.4-.763-16.968-.763-16.968.029-7.614-1.076-11.115.866-7.751.866-7.751a1.071,1.071,0,0,0-.034-.225.237.237,0,0,0,.024-.054s-.064-.489-.171-1.193v.073c-.293-2-.846-5.633-1.213-7.306-.523-2.376-.425-13.853-.425-13.853l1.751-4.968,3.765,8.313L591.63,455.3a9.561,9.561,0,0,1,2.039,4.709v1.105a6.7,6.7,0,0,0,1.271,3.966s1.174,5.271,2.729,6.567,1.663,3.912,1.663,3.912,2.122,7.633,3.037,8.954c.768,1.115.929,4.249.978,5.208h0V490s.362,2.743.44,5.061v.763a8.136,8.136,0,0,1-.152,1.883.164.164,0,0,1-.029.108v-.391a19.736,19.736,0,0,0-.367,4.822c.059,2.773.606,6.034,2.357,7.9,3.032,3.222,4.846,2.734,4.846,2.734s-1.237,4.22-2.934,5.12a.871.871,0,0,0-.176.122,1.4,1.4,0,0,0-.054-.24,2.02,2.02,0,0,0-.445,1.57,11.139,11.139,0,0,0,2.367,6.093,3.447,3.447,0,0,0,1.467.792,2.475,2.475,0,0,1-.264.176,5.226,5.226,0,0,1-.582.3,2.82,2.82,0,0,1-.87.264,4.117,4.117,0,0,0-2.988,1.6c-1.017,1.423-1.624,3.34.562,4.919l7.8,2.357S627.621,537.145,626.8,534.2Z" transform="translate(-280.986 -163.955)" fill="url(#linear-gradient-2)"/>
    <path id="Caminho_239" data-name="Caminho 239" d="M652.34,794.34l-7.545-2.347c-2.117-1.584-1.54-3.5-.552-4.924a3.96,3.96,0,0,1,2.89-1.6,3.493,3.493,0,0,0,1.4-.557,3.345,3.345,0,0,0,1.139-1.125,5.542,5.542,0,0,0,.738-2.91s8.083-2.709,10.411-.4a6.018,6.018,0,0,1,1.047,1.413,12.132,12.132,0,0,1,1.247,5.213s.514,2.582,1.306,5.526S652.34,794.34,652.34,794.34Z" transform="translate(-356.869 -417.229)" fill="#2d293d"/>
    <path id="Caminho_240" data-name="Caminho 240" d="M726.607,783.95l-7.55-2.367c-2.117-1.584-1.535-3.5-.552-4.924a3.936,3.936,0,0,1,2.89-1.594,2.652,2.652,0,0,0,.841-.264,4.6,4.6,0,0,0,.567-.3c2.039-1.227,1.873-4.034,1.873-4.034s8.083-2.709,10.416-.4a5.964,5.964,0,0,1,.821,1.032,11.842,11.842,0,0,1,1.467,5.609s.518,2.587,1.306,5.526S726.607,783.95,726.607,783.95Z" transform="translate(-394.817 -411.909)" fill="#2d293d"/>
    <path id="Caminho_241" data-name="Caminho 241" d="M667.429,780.436a6.023,6.023,0,0,1,1.047,1.413h0l-12.2,1.892a5.541,5.541,0,0,0,.738-2.91S665.1,778.128,667.429,780.436Z" transform="translate(-363.474 -417.207)" opacity="0.1"/>
    <path id="Caminho_242" data-name="Caminho 242" d="M740.707,771.1l.088,2.293c-1.78,3.213-11.027,2.88-13.766,1.408a4.611,4.611,0,0,0,.567-.3c2.039-1.227,1.873-4.034,1.873-4.034s8.083-2.709,10.416-.4a5.96,5.96,0,0,1,.822,1.032Z" transform="translate(-399.627 -411.909)" opacity="0.1"/>
    <path id="Caminho_243" data-name="Caminho 243" d="M687.638,626.318A20.432,20.432,0,0,0,686.3,629.5l.318,8.225c-1.956,3.516-12.826,2.787-14.357.978s-3.276-6.65-1.643-7.55,2.826-5.11,2.826-5.11-1.755.489-4.694-2.738-2.391-10.651-1.956-12.44-.3-7.707-.3-7.707-.054-4.166-.939-5.487-2.934-8.958-2.934-8.958-.1-2.606-1.609-3.912-2.65-6.572-2.65-6.572a6.847,6.847,0,0,1-1.213-4.435c.21-2.616-1.98-5.35-1.98-5.35L651.2,557.334l-3.658-8.313-1.687,4.968s-.078,11.472.43,13.849,1.379,8.709,1.379,8.709-1.927,4.245-.851,7.746,1.051,11.12,1.051,11.12,1.545,15.687.758,16.969-.557,4.4-.557,4.4,4.621,9,3.315,10.3-.758,4.719-.758,4.719,2.934-.112,1.711,1.188-1.883,7.893-1.883,7.893l-12.533,1.956a26.146,26.146,0,0,1-3.027-5.2c-1.814-3.79.181-3.448,1.839-3.912s.562-1.467-1.467-2.655-.978-4.029-.978-4.029,2.822-5.218,1.765-5.594-1.438-7.555-1.438-7.555-2.411-8.46-1.956-10.758-1.956-7.746-1.956-7.746l-.978-6.533a18.042,18.042,0,0,1-2.817-12.323l-.391-10.1s-3.667-19.462-4.465-29.34c-.489-6.328-.768-14.973-.885-20.372-.068-3.032-.093-5.037-.093-5.037l44.8-6.416a37.264,37.264,0,0,0,1.071,6.65c.553,2.445,1.4,5.624,2.68,9.58,3.668,11.325,2.02,19.942,2.02,19.942l.142,14.489s4.328,9.531,3.623,12.9a27.766,27.766,0,0,0-.582,6.064s9.663,20.8,8.964,26.978,3.521,15.712,3.521,15.712S688.606,624.4,687.638,626.318Z" transform="translate(-345.482 -277.07)" fill="#575988"/>
    <path id="Caminho_244" data-name="Caminho 244" d="M700.34,641.452l13.624-2.352S706.531,647.315,700.34,641.452Z" transform="translate(-385.989 -345.461)" opacity="0.05"/>
    <path id="Caminho_245" data-name="Caminho 245" d="M720.755,611.9s.655,4.822-2.245,6.758C718.51,618.658,723.791,617.621,720.755,611.9Z" transform="translate(-395.273 -331.562)" opacity="0.1"/>
    <path id="Caminho_246" data-name="Caminho 246" d="M703.589,580.45s-11.086,9.863-15.277,9.242S703.589,580.45,703.589,580.45Z" transform="translate(-379.541 -315.491)" opacity="0.1"/>
    <path id="Caminho_247" data-name="Caminho 247" d="M656.852,654.29s-8.626,2.3-8.753,5.809S656.852,654.29,656.852,654.29Z" transform="translate(-359.293 -353.223)" opacity="0.1"/>
    <path id="Caminho_248" data-name="Caminho 248" d="M663.6,742.93s-12.2,2.763-8.65,4.191a58.776,58.776,0,0,0,9.325,2.445S668.231,749.634,663.6,742.93Z" transform="translate(-362.462 -398.518)" opacity="0.05"/>
    <g id="Grupo_128" data-name="Grupo 128" transform="translate(275.622 234.278)" opacity="0.05">
      <path id="Caminho_249" data-name="Caminho 249" d="M649.1,754.946a2.445,2.445,0,0,1-1.188-1.736l-.117.225s-1.042,2.856.978,4.029c.235.132.45.264.66.4.357-.083.753-.147,1.125-.259C652.225,757.122,651.124,756.12,649.1,754.946Z" transform="translate(-634.62 -638.05)"/>
      <path id="Caminho_250" data-name="Caminho 250" d="M682.428,751.577c.328-.328.284-1.125.039-2.147a5.755,5.755,0,0,0-.582,3.042,2.389,2.389,0,0,1,.543-.895Z" transform="translate(-652.178 -636.118)"/>
      <path id="Caminho_251" data-name="Caminho 251" d="M674.385,648a14.183,14.183,0,0,0-.685,3.858,15.215,15.215,0,0,1,.851-2.67S674.487,648.743,674.385,648Z" transform="translate(-647.998 -584.288)"/>
      <path id="Caminho_252" data-name="Caminho 252" d="M732,633.444a4.888,4.888,0,0,0,.073-1.144c-.127.787-.205,1.511-.259,2.147C731.864,634.109,731.927,633.787,732,633.444Z" transform="translate(-677.692 -576.265)"/>
      <path id="Caminho_253" data-name="Caminho 253" d="M677.126,721.323a6.828,6.828,0,0,0,.22-2.323,7.888,7.888,0,0,0-.489,2.934,2.8,2.8,0,0,1,.269-.611Z" transform="translate(-649.61 -620.568)"/>
      <path id="Caminho_254" data-name="Caminho 254" d="M665.653,763.7a40.72,40.72,0,0,0-1.188,6.45l-12.533,1.956a25.858,25.858,0,0,1-3.017-5.213c-.156-.333-.288-.631-.391-.9-.738.377-1.007,1.169.073,3.423a26.347,26.347,0,0,0,3.022,5.2l12.533-1.956s.685-6.6,1.887-7.9C666.622,764.135,666.216,763.847,665.653,763.7Z" transform="translate(-634.802 -643.41)"/>
      <path id="Caminho_255" data-name="Caminho 255" d="M634.637,619.941s.381,7.183,1.438,7.56h0c.489-1.213.787-2.352.313-2.518-1.056-.377-1.438-7.56-1.438-7.56s-2.411-8.455-1.956-10.758-1.956-7.746-1.956-7.746l-.978-6.528a18.071,18.071,0,0,1-2.768-12.3l-.391-10.1s-3.668-19.462-4.465-29.34c-.489-6.323-.768-14.973-.885-20.372,0-.978-.039-1.839-.054-2.567l-.357.049s0,2,.088,5.037c.122,5.379.377,14.044.89,20.367.8,9.878,4.465,29.34,4.465,29.34l.357,10.093a18.071,18.071,0,0,0,2.768,12.3l.978,6.533s2.4,5.433,1.956,7.741S634.637,619.941,634.637,619.941Z" transform="translate(-621.14 -517.71)"/>
      <path id="Caminho_256" data-name="Caminho 256" d="M723.669,767.316a12.057,12.057,0,0,1-2.186-4.866c-1.242,1.208.411,5.653,1.863,7.384,1.531,1.819,12.4,2.548,14.352-.978l-.078-1.985C734.916,769.78,725.112,769.037,723.669,767.316Z" transform="translate(-672.192 -642.771)"/>
      <path id="Caminho_257" data-name="Caminho 257" d="M756.445,747.018a20.412,20.412,0,0,0-1.335,3.179l.054,1.467a22.385,22.385,0,0,1,.978-2.127,6.357,6.357,0,0,0,.357-2.6A.321.321,0,0,0,756.445,747.018Z" transform="translate(-689.598 -634.846)"/>
      <path id="Caminho_258" data-name="Caminho 258" d="M720.252,735.794a20.6,20.6,0,0,0,.929-2.514s-1.755.489-4.694-2.738c-2.137-2.347-2.445-6.919-2.254-9.922-.455,1.79-1,9.213,1.956,12.435C718.091,735.163,719.5,735.686,720.252,735.794Z" transform="translate(-668.525 -621.396)"/>
      <path id="Caminho_259" data-name="Caminho 259" d="M692.743,645.656a56.882,56.882,0,0,1,.445,6.161,8.025,8.025,0,0,1,.176-.978c.455-1.79-.3-7.7-.3-7.7s-.054-4.171-.939-5.492-2.934-8.959-2.934-8.959-.1-2.6-1.609-3.912-2.66-6.558-2.66-6.558a6.811,6.811,0,0,1-1.213-4.435c.21-2.616-1.956-5.345-1.956-5.345l-4-11.125L674.087,589l-1.687,4.988v1.584l1.369-4.034,3.658,8.313,3.976,11.11s2.191,2.734,1.956,5.345a6.847,6.847,0,0,0,1.213,4.44s1.144,5.271,2.65,6.572,1.614,3.912,1.614,3.912,2.064,7.638,2.934,8.958S692.743,645.656,692.743,645.656Z" transform="translate(-647.334 -554.139)"/>
    </g>
    <path id="Caminho_260" data-name="Caminho 260" d="M705.8,302.566l-.636,3.834.113,1.687.078,1.247-4.323.616-.523-.88h0a42.19,42.19,0,0,0-3.58-5.325c-.831-.641-2.67-11.154-.924-10.6a4.568,4.568,0,0,1,2.5,2.1S707.086,295.9,705.8,302.566Z" transform="translate(-383.404 -168.67)" fill="#ffcdd3"/>
    <path id="Caminho_261" data-name="Caminho 261" d="M710.826,324.51l-4.323.616-.523-.88h0a3.839,3.839,0,0,1,4.768-.978Z" transform="translate(-388.871 -183.847)" opacity="0.1"/>
    <path id="Caminho_262" data-name="Caminho 262" d="M711.775,326.942l-5.677,1.545-.156-.846-.411-2.284a3.951,3.951,0,0,1,5.516-.978l.333,1.159Z" transform="translate(-388.641 -184.259)" fill="#dce6f2"/>
    <path id="Caminho_263" data-name="Caminho 263" d="M513.046,301.742l-5.985,3.521s-.254-.489-.6-1.134c-.626-1.2-1.565-3-1.829-3.648-.4-.978-3-2.181-3-2.181-6.636-5.868.787-11.418.787-11.418,3.721-8.279,8.646,2.445,8.646,2.445s.841,5.707.416,6.113-.367,1.956-.367,1.956a22.905,22.905,0,0,1,1.609,3.423C512.934,301.39,513.046,301.742,513.046,301.742Z" transform="translate(-283.038 -163.876)" fill="#ffcdd3"/>
    <path id="Caminho_264" data-name="Caminho 264" d="M520.977,319.613l-5.985,3.521s-.254-.489-.6-1.134c.836-.753,3.8-3.355,4.812-3.281a7.771,7.771,0,0,0,1.467,0C520.864,319.261,520.977,319.613,520.977,319.613Z" transform="translate(-290.969 -181.747)" opacity="0.1"/>
    <path id="Caminho_265" data-name="Caminho 265" d="M521.891,321.791l-6.738,3.648-.2-1.467-.137-1.017s3.853-3.565,5.032-3.482a6.3,6.3,0,0,0,1.795-.073l.127,1.237Z" transform="translate(-291.189 -182.096)" fill="#dce6f2"/>
    <path id="Caminho_266" data-name="Caminho 266" d="M658.61,341.342s-29.829,4.533-24.3,2.5c3.848-1.418,5.306-3.956,5.521-6.719a15.363,15.363,0,0,0-1.379-6.89,29.835,29.835,0,0,0-2.89-5.311s22.421-13.482,18.3-1.858a18.259,18.259,0,0,0-1.09,5.477,15.226,15.226,0,0,0,.8,5.472A16.367,16.367,0,0,0,658.61,341.342Z" transform="translate(-351.897 -181.553)" fill="#ffcdd3"/>
    <path id="Caminho_267" data-name="Caminho 267" d="M655.894,323.062a18.259,18.259,0,0,0-1.09,5.477c-2.088,1.9-4.46,1.868-7.5,1.985-2.338.088-4.89.753-6.807-.3a29.838,29.838,0,0,0-2.89-5.311S660.016,311.438,655.894,323.062Z" transform="translate(-353.934 -181.552)" opacity="0.1"/>
    <circle id="Elipse_43" data-name="Elipse 43" cx="12.401" cy="12.401" r="12.401" transform="translate(280.102 124.991)" fill="#ffcdd3"/>
    <path id="Caminho_268" data-name="Caminho 268" d="M658.61,356.549s-29.829,4.533-24.3,2.5c3.848-1.418,5.306-3.956,5.521-6.719,1.433-1.672,4.4-2.934,6.284-3.648a9,9,0,0,1,5.428-.3,7.486,7.486,0,0,1,2.01.841A16.367,16.367,0,0,0,658.61,356.549Z" transform="translate(-351.897 -196.761)" opacity="0.1"/>
    <path id="Caminho_269" data-name="Caminho 269" d="M712.2,328.781l-5.677,1.545-.156-.846a5.071,5.071,0,0,1,5.438-2.1Z" transform="translate(-389.07 -186.098)" opacity="0.1"/>
    <path id="Caminho_270" data-name="Caminho 270" d="M522.034,323.084l-6.739,3.648-.2-1.467a50.232,50.232,0,0,1,6.817-3.335Z" transform="translate(-291.332 -183.389)" opacity="0.1"/>
    <path id="Caminho_271" data-name="Caminho 271" d="M666.979,511.9c-11.531,2.279-27.956,5.3-30.607,4.6-2.2-.577-9.139-.24-15.159.2-.069-3.032-.093-5.037-.093-5.037l44.8-6.416A36,36,0,0,0,666.979,511.9Z" transform="translate(-345.507 -277.064)" opacity="0.1"/>
    <path id="Caminho_272" data-name="Caminho 272" d="M622.464,415.48s-37.961,8.029-42.113,6.939-25.15,1.071-25.15,1.071c-9.232,6.714-5.633-2.807-5.633-2.807a23.276,23.276,0,0,1-.029-8.861,54.284,54.284,0,0,0,1.222-8.91s-.45-6.24.641-7.741,2.039-11.966,2.039-11.966.768-7.125.606-8.68.083-5.946.083-5.946l1.071-7.335c-7.824-.743-32.147-14.406-32.147-14.406-1.335-4.851-10.626-15.961-10.626-15.961a11.855,11.855,0,0,0-.836-2.783c-.69-1.643,8.553-5.335,8.553-5.335s7.306,8.269,8.851,10.5,6.709,6.308,6.709,6.308a5.149,5.149,0,0,1,2.3.215.668.668,0,0,1,.122.034h0a18.761,18.761,0,0,1,4.768,2.5,9.047,9.047,0,0,1,6.44,2.152s4.245-.787,5-.088,4.372-.166,4.372-.166,3.35-7.849,5.829-5.7,12.641,1.653,12.641,1.653c1.286-1.853,4.528-3.271,6.562-4.015a9,9,0,0,1,5.428-.3,7.027,7.027,0,0,1,2.186.978l6.4,5.8s1.682-2.357,1.467-2.87,2.049-1.017,2.049-1.017,2.983-1.056,4.117-1.408,2.23.841,2.323.949a12.269,12.269,0,0,1-.69-4.557,5.392,5.392,0,0,0-1.394-3.7c3.3-9.1,11.814-1.912,11.814-1.912s1.125,4.856.362,6.763,1.056,5.8.89,6.846.523,2.8.6,4.773a27.587,27.587,0,0,1-1.408,7.428c-.577,1.707-5.379,5.628-5.379,5.628s-.083,5.946-2.137,9.462-.249,15.237-.249,15.237,2.445,9.081,5.149,11.9S622.464,415.48,622.464,415.48Z" transform="translate(-289.52 -183.813)" fill="#656691"/>
    <path id="Caminho_273" data-name="Caminho 273" d="M613.4,370.16s-1.276-3.394-2.333-3.663A24.765,24.765,0,0,1,608,365.261l.621-1.311s3.956.924,4.621,2.044S613.4,370.16,613.4,370.16Z" transform="translate(-338.803 -204.861)" opacity="0.1"/>
    <path id="Caminho_274" data-name="Caminho 274" d="M565.839,360.088c-.171,1.051-9.4,2.342-9.4,2.342l4.5-4.89h0l.117.039h0A18.759,18.759,0,0,1,565.839,360.088Z" transform="translate(-312.456 -201.585)" opacity="0.1"/>
    <circle id="Elipse_44" data-name="Elipse 44" cx="0.831" cy="0.831" r="0.831" transform="translate(225.186 144.414)" fill="#575988"/>
    <circle id="Elipse_45" data-name="Elipse 45" cx="0.831" cy="0.831" r="0.831" transform="translate(226.316 146.038)" fill="#575988"/>
    <circle id="Elipse_46" data-name="Elipse 46" cx="0.831" cy="0.831" r="0.831" transform="translate(227.416 147.534)" fill="#575988"/>
    <circle id="Elipse_47" data-name="Elipse 47" cx="0.831" cy="0.831" r="0.831" transform="translate(228.575 149.158)" fill="#575988"/>
    <circle id="Elipse_48" data-name="Elipse 48" cx="0.68" cy="0.68" r="0.68" transform="translate(326.87 145.441)" fill="#575988"/>
    <circle id="Elipse_49" data-name="Elipse 49" cx="0.68" cy="0.68" r="0.68" transform="translate(327.031 146.972)" fill="#575988"/>
    <circle id="Elipse_50" data-name="Elipse 50" cx="0.68" cy="0.68" r="0.68" transform="translate(327.183 148.502)" fill="#575988"/>
    <path id="Caminho_275" data-name="Caminho 275" d="M621.38,434.35c-.1-.122,24.509,28.617,42.054,10.787C663.454,445.137,634.813,450.149,621.38,434.35Z" transform="translate(-345.64 -240.835)" opacity="0.1"/>
    <path id="Caminho_276" data-name="Caminho 276" d="M595,466.919s14.059-.156,15.682,3.824l.161,4.205a2.68,2.68,0,0,1-2.611.1c-1.467-.714-10.1-4.7-13.017-2.509Z" transform="translate(-332.16 -257.477)" opacity="0.1"/>
    <path id="Caminho_277" data-name="Caminho 277" d="M595.55,466.9s13.448-.152,15,3.648l.157,4a2.577,2.577,0,0,1-2.5.1c-1.384-.675-9.663-4.479-12.45-2.386Z" transform="translate(-332.441 -257.467)" fill="#656691"/>
    <path id="Caminho_278" data-name="Caminho 278" d="M608.29,404a45.3,45.3,0,0,0,5.809,9.13,36.588,36.588,0,0,0,8.846,7.912S608.6,405.9,608.29,404Z" transform="translate(-338.951 -225.326)" opacity="0.1"/>
    <path id="Caminho_279" data-name="Caminho 279" d="M597.61,370.94s2.734,10.025,8.9,13.228Z" transform="translate(-333.494 -208.433)" opacity="0.1"/>
    <path id="Caminho_280" data-name="Caminho 280" d="M590.193,373.307c-.068-.186-1.775,8.078,8.264,12.225C598.457,385.537,594.212,384.275,590.193,373.307Z" transform="translate(-329.627 -209.64)" opacity="0.1"/>
    <path id="Caminho_281" data-name="Caminho 281" d="M715.226,354.6c-.156,0,4.993,3.012,6.411,4.445C721.637,359.041,718.185,354.3,715.226,354.6Z" transform="translate(-393.594 -200.074)" opacity="0.1"/>
    <path id="Caminho_282" data-name="Caminho 282" d="M638.28,313.288a2.6,2.6,0,0,0,1.032,1.633,2.524,2.524,0,0,0,1.179.215c3.785.093,7.721.108,11.159-1.467a4.216,4.216,0,0,0,1.663-1.2,6.949,6.949,0,0,0,.885-2.777,39.412,39.412,0,0,1,2.083-5.35,17.664,17.664,0,0,0,.861-9.5,6.359,6.359,0,0,0-1.051-2.729c-1.056-1.394-2.9-1.9-4.274-2.988s-2.289-2.8-3.868-3.594a7.168,7.168,0,0,0-4.685-.235,24.559,24.559,0,0,0-8.6,3.624,4.355,4.355,0,0,1-2.875,1.1,3.987,3.987,0,0,1-2.21-1.56,11.563,11.563,0,0,0-.719,5.433,2.415,2.415,0,0,1,0,.817,2.475,2.475,0,0,1-.543.88c-.89,1.12-1.408,2.851-.445,3.912.421.46,1.047.694,1.467,1.164.733.846.548,2.108.572,3.223a1.648,1.648,0,0,0,.318,1.086,1.6,1.6,0,0,0,1.54.308,4.142,4.142,0,0,1,1.624-.22,2.685,2.685,0,0,1,1.467,1.037C636.672,308.231,637.449,310.642,638.28,313.288Z" transform="translate(-348.692 -164.531)" fill="#2d293d"/>
    <g id="Grupo_129" data-name="Grupo 129" transform="translate(278.656 123.788)" opacity="0.1">
      <path id="Caminho_283" data-name="Caminho 283" d="M653.685,322.972a4.186,4.186,0,0,1-1.658,1.193c-3.423,1.589-7.374,1.575-11.164,1.467a1.958,1.958,0,0,1-2.21-1.853c-.831-2.641-1.609-5.056-3.423-7.208a2.71,2.71,0,0,0-1.467-1.032,4.22,4.22,0,0,0-1.623.215,1.614,1.614,0,0,1-1.545-.3,1.692,1.692,0,0,1-.318-1.09c-.024-1.115.161-2.377-.567-3.218-.411-.489-1.037-.7-1.467-1.169a2.445,2.445,0,0,1-.333-2.474,2.85,2.85,0,0,0-.049,3.325c.416.46,1.047.694,1.467,1.169.734.841.548,2.1.572,3.218a1.648,1.648,0,0,0,.318,1.086,1.6,1.6,0,0,0,1.54.308,4.235,4.235,0,0,1,1.624-.22,2.685,2.685,0,0,1,1.467,1.037c1.834,2.152,2.606,4.562,3.423,7.208a2.622,2.622,0,0,0,1.032,1.638,2.582,2.582,0,0,0,1.179.215c3.785.088,7.721.1,11.159-1.467a4.255,4.255,0,0,0,1.663-1.193,3.445,3.445,0,0,0,.489-1.027A1.919,1.919,0,0,1,653.685,322.972Z" transform="translate(-627.344 -299.803)"/>
      <path id="Caminho_284" data-name="Caminho 284" d="M630.384,297.8a1.754,1.754,0,0,0,.352-.641,2.263,2.263,0,0,0,0-.812,11.482,11.482,0,0,1,.406-4.5l-.073-.083a11.569,11.569,0,0,0-.719,5.433,3.185,3.185,0,0,1,.034.606Z" transform="translate(-628.846 -291.76)"/>
    </g>
    <path id="Caminho_285" data-name="Caminho 285" d="M645.77,357.384s15.555,1.467,16.861-.924" transform="translate(-358.104 -201.033)" opacity="0.1"/>
    <path id="Caminho_286" data-name="Caminho 286" d="M706.8,342.871s8.6-.318,10.616,2.831" transform="translate(-389.29 -194.085)" opacity="0.1"/>
    <path id="Caminho_287" data-name="Caminho 287" d="M1083.074,677s2.9,3.79-1.34,9.516-7.731,10.558-6.318,14.127c0,0,6.4-10.631,11.6-10.783S1088.8,683.386,1083.074,677Z" transform="translate(-577.488 -364.828)" fill="#2bedbf"/>
    <path id="Caminho_288" data-name="Caminho 288" d="M1083.244,677a4.5,4.5,0,0,1,.592,1.188c5.081,5.966,7.785,11.536,2.9,11.673-4.548.132-10.005,8.264-11.311,10.313a4.8,4.8,0,0,0,.156.489s6.4-10.631,11.6-10.783S1088.971,683.386,1083.244,677Z" transform="translate(-577.658 -364.828)" opacity="0.1"/>
    <path id="Caminho_289" data-name="Caminho 289" d="M1101.74,685.979c0,1.335-.152,2.416-.337,2.416s-.333-1.081-.333-2.416.186-.7.372-.7S1101.74,684.644,1101.74,685.979Z" transform="translate(-590.76 -368.98)" fill="#ffd037"/>
    <path id="Caminho_290" data-name="Caminho 290" d="M1103.827,689.147c-1.174.636-2.2,1.022-2.284.861s.792-.812,1.956-1.467.709-.176.8,0S1105,688.506,1103.827,689.147Z" transform="translate(-590.999 -370.554)" fill="#ffd037"/>
    <path id="Caminho_291" data-name="Caminho 291" d="M1053.29,677s-2.9,3.79,1.335,9.516,7.736,10.558,6.323,14.127c0,0-6.4-10.631-11.6-10.783S1047.564,683.386,1053.29,677Z" transform="translate(-563.019 -364.828)" fill="#2bedbf"/>
    <path id="Caminho_292" data-name="Caminho 292" d="M1053.29,677a4.51,4.51,0,0,0-.592,1.188c-5.081,5.966-7.785,11.536-2.9,11.673,4.548.132,10,8.264,11.311,10.313a4.8,4.8,0,0,1-.156.489s-6.4-10.631-11.6-10.783S1047.564,683.386,1053.29,677Z" transform="translate(-563.02 -364.828)" opacity="0.1"/>
    <path id="Caminho_293" data-name="Caminho 293" d="M1049.06,685.979c0,1.335.152,2.416.337,2.416s.333-1.081.333-2.416-.186-.7-.372-.7S1049.06,684.644,1049.06,685.979Z" transform="translate(-564.183 -368.98)" fill="#ffd037"/>
    <path id="Caminho_294" data-name="Caminho 294" d="M1044.536,689.147c1.174.636,2.2,1.022,2.284.861s-.792-.812-1.956-1.467-.714-.176-.8,0S1043.363,688.506,1044.536,689.147Z" transform="translate(-561.508 -370.554)" fill="#ffd037"/>
    <ellipse id="Elipse_51" data-name="Elipse 51" cx="30.318" cy="4.65" rx="30.318" ry="4.65" transform="translate(467.605 355.517)" fill="#2bedbf" opacity="0.1"/>
    <path id="Caminho_295" data-name="Caminho 295" d="M1075.041,713.04l-.147,1.183-.2,1.672-.083.7-.206,1.672-.088.7-.206,1.668-2.318,19.022c-.211,1.7-2.983,3.022-6.328,3.022h-12.059c-3.35,0-6.117-1.325-6.323-3.022l-2.327-19.022-.2-1.668-.083-.7-.21-1.672-.083-.7-.206-1.672-.142-1.183c-.117-.978,1.384-1.77,3.276-1.77h24.675C1073.657,711.27,1075.164,712.077,1075.041,713.04Z" transform="translate(-561.509 -382.34)" fill="#65617d"/>
    <path id="Caminho_296" data-name="Caminho 296" d="M1017.55,678.69l-.205,1.672H986.83l-.2-1.672Z" transform="translate(-504.164 -346.806)" fill="#9d9cb5"/>
    <path id="Caminho_297" data-name="Caminho 297" d="M1017.563,683.53l-.2,1.677H987.425l-.205-1.677Z" transform="translate(-504.465 -349.28)" fill="#9d9cb5"/>
    <path id="Caminho_298" data-name="Caminho 298" d="M1017.571,688.38l-.2,1.672H988.015l-.205-1.672Z" transform="translate(-504.767 -351.758)" fill="#9d9cb5"/>
  </g>
</svg>
