<svg xmlns="http://www.w3.org/2000/svg" width="67.601" height="61.406" viewBox="0 0 67.601 61.406">
  <g id="support" transform="translate(0.001 -23.462)">
    <g id="Grupo_138" data-name="Grupo 138" transform="translate(1.32 24.783)">
      <path id="Caminho_341" data-name="Caminho 341" d="M222.337,81.007H233.9l-5.319,6.528h0Z" transform="translate(-194.302 -74.73)" fill="#fcc69d"/>
      <path id="Caminho_342" data-name="Caminho 342" d="M230.907,36.784l-.876-.941a7.464,7.464,0,0,0-5.464-2.379H214.2V35.2a4.675,4.675,0,0,0,4.7,4.675l8.683-.017Z" transform="translate(-187.237 -33.464)" fill="#fcc69d"/>
      <path id="Caminho_343" data-name="Caminho 343" d="M251.8,303.042h0a11,11,0,0,0,7.686,2.31l.419-.034,7.244,7.244,17.686-15.252L274.8,287.322Z" transform="translate(-219.871 -253.804)" fill="#fcc69d"/>
      <path id="Caminho_344" data-name="Caminho 344" d="M23.905,83.165,10,97.068l22.432,10.506L44.269,95.7h0a19.266,19.266,0,0,0,12.925-5.63L70,77.255a3.656,3.656,0,0,0,0-5.17h0a3.656,3.656,0,0,0-5.17,0l-1.623,1.623,3.4-3.4a3.656,3.656,0,0,0,0-5.17h0a3.656,3.656,0,0,0-5.17,0l-3.4,3.4,4.689-4.689a3.656,3.656,0,0,0,0-5.17h0a3.656,3.656,0,0,0-5.17,0l-4.689,4.689,5.982-5.982a3.656,3.656,0,0,0,0-5.17h0a3.656,3.656,0,0,0-5.17,0l-9.4,9.4" transform="translate(-10.002 -48.81)" fill="#fcc69d"/>
      <path id="Caminho_345" data-name="Caminho 345" d="M89.978,224.007l-3.568-3.568a3.656,3.656,0,0,0-5.17,0h0a3.656,3.656,0,0,0,0,5.17l3.568,3.568a3.656,3.656,0,0,0,5.17,0h0A3.656,3.656,0,0,0,89.978,224.007Z" transform="translate(-70.905 -194.823)" fill="#fcc69d"/>
      <path id="Caminho_346" data-name="Caminho 346" d="M117.473,173.187l-5.342-5.342a3.656,3.656,0,0,0-5.17,0h0a3.656,3.656,0,0,0,0,5.17l5.342,5.342a3.656,3.656,0,0,0,5.17,0h0A3.656,3.656,0,0,0,117.473,173.187Z" transform="translate(-93.229 -149.173)" fill="#fcc69d"/>
      <path id="Caminho_347" data-name="Caminho 347" d="M148.135,125.532,141.5,118.9a3.656,3.656,0,0,0-5.17,0h0a3.656,3.656,0,0,0,0,5.17l6.635,6.635a3.656,3.656,0,0,0,5.17,0h0A3.656,3.656,0,0,0,148.135,125.532Z" transform="translate(-118.721 -106.688)" fill="#fcc69d"/>
      <path id="Caminho_348" data-name="Caminho 348" d="M178.795,77.878l-7.928-7.928a3.656,3.656,0,0,0-5.17,0h0a3.656,3.656,0,0,0,0,5.17l7.928,7.928a3.656,3.656,0,0,0,5.17,0h0A3.656,3.656,0,0,0,178.795,77.878Z" transform="translate(-144.211 -64.203)" fill="#fcc69d"/>
    </g>
    <path id="Caminho_349" data-name="Caminho 349" d="M473.06,332.331l-3.223-3.2a1.321,1.321,0,1,0-1.86,1.875l3.223,3.2a1.321,1.321,0,0,0,1.86-1.875Z" transform="translate(-405.85 -264.981)"/>
    <path id="Caminho_350" data-name="Caminho 350" d="M443.063,304.339l0,0a1.321,1.321,0,1,0,1.87,0A1.319,1.319,0,0,0,443.061,304.342Z" transform="translate(-384.228 -243.456)"/>
    <path id="Caminho_351" data-name="Caminho 351" d="M42.284,75.362a1.321,1.321,0,0,0-1.042-.383l-.419.034a9.64,9.64,0,0,1-5.511-1.2l.849-.852a20.518,20.518,0,0,0,13.283-5.99L62.256,54.161a4.973,4.973,0,0,0-2.4-8.366,4.978,4.978,0,0,0-3.668-7,4.968,4.968,0,0,0-3.876-6.459,4.979,4.979,0,0,0-7.1-5.936l-.127-.137a8.813,8.813,0,0,0-6.431-2.8H28.281a1.321,1.321,0,0,0-1.321,1.321v1.732a6,6,0,0,0,.341,2,4.977,4.977,0,0,0-6.633,6.16,4.976,4.976,0,0,0-3.881,6.46,4.976,4.976,0,0,0-3.665,7,4.977,4.977,0,0,0-2.4,8.368l2.635,2.634L.386,72.107a1.321,1.321,0,1,0,1.867,1.868l13.1-13.1a4.974,4.974,0,0,0,7.429-4.528c.067,0,.134,0,.2,0a4.972,4.972,0,0,0,4.976-4.974c0-.067,0-.134,0-.2.066,0,.132,0,.2,0a4.972,4.972,0,0,0,4.976-4.974c0-.067,0-.134,0-.2.066,0,.132,0,.2,0a4.974,4.974,0,0,0,3.849-8.128l8.766-8.766a2.335,2.335,0,1,1,3.3,3.3l-1.292,1.292-4.69,4.69a1.321,1.321,0,1,0,1.867,1.868l4.69-4.69a2.335,2.335,0,1,1,3.3,3.3L51.821,40.18l-3.4,3.4a1.321,1.321,0,1,0,1.867,1.868l3.4-3.4a2.335,2.335,0,1,1,3.3,3.3l-1.774,1.774-1.623,1.623a1.321,1.321,0,1,0,1.867,1.868l1.624-1.624a2.335,2.335,0,0,1,3.3,3.3L47.576,65.105a17.89,17.89,0,0,1-12.039,5.244,1.32,1.32,0,0,0-.888.388L22.815,82.615a1.321,1.321,0,1,0,1.871,1.864l8.7-8.737a12.275,12.275,0,0,0,7.455,1.918l6.813,6.813a1.321,1.321,0,0,0,1.867-1.868ZM29.6,26.1h9.049a6.163,6.163,0,0,1,4.5,1.958l.054.058L35.318,36,31.69,32.376a6.042,6.042,0,0,0,1.265.134h.029l3.624-.017a1.321,1.321,0,0,0-.006-2.641H36.6l-3.624.017h-.016A3.354,3.354,0,0,1,29.6,26.514V26.1ZM19.46,58.2a2.335,2.335,0,0,1-3.3,0l-3.568-3.568a2.335,2.335,0,1,1,3.3-3.3L19.46,54.9A2.338,2.338,0,0,1,19.46,58.2Zm5.854-6.822a2.335,2.335,0,0,1-3.987,1.651l-3.568-3.568-1.774-1.774a2.335,2.335,0,1,1,3.3-3.3l5.342,5.342h0A2.32,2.32,0,0,1,25.314,51.382Zm5.17-5.17A2.335,2.335,0,0,1,26.5,47.863l-6.635-6.635a2.335,2.335,0,0,1,3.3-3.3l3.024,3.024L29.8,44.561h0A2.319,2.319,0,0,1,30.484,46.212Zm4.486-3.519a2.338,2.338,0,0,1-3.3,0l-6.635-6.635,0,0-1.29-1.29a2.335,2.335,0,0,1,3.3-3.3L34.97,39.39a2.336,2.336,0,0,1,0,3.3Z"/>
  </g>
</svg>
